<?xml version="1.0" encoding="utf-8"?>
<!-- Generator: Adobe Illustrator 16.0.0, SVG Export Plug-In . SVG Version: 6.00 Build 0)  -->
<!DOCTYPE svg PUBLIC "-//W3C//DTD SVG 1.1//EN" "http://www.w3.org/Graphics/SVG/1.1/DTD/svg11.dtd">
<svg version="1.1" id="Ebene_1" xmlns="http://www.w3.org/2000/svg" xmlns:xlink="http://www.w3.org/1999/xlink" x="0px" y="0px"
	 width="201.693px" height="78.25px" viewBox="0 0 201.693 78.25" enable-background="new 0 0 201.693 78.25" xml:space="preserve">
<polygon fill="none" points="109.427,39.293 123.527,39.293 116.501,21.893 "/>
<polygon fill="none" points="109.506,41.173 123.745,41.173 116.65,23.603 "/>
<g>
	<polygon fill="#F6F6F6" points="28.26,27.373 26.27,13.513 21.213,7.649 12.131,33.677 3.049,59.702 30.13,54.556 57.211,49.409 
		47.239,37.84 31.538,50.186 	"/>
</g>
<polygon fill="#383838" points="67.224,50.008 67.126,50.008 59.533,28.173 57.715,29.603 67.078,56.523 80.304,18.919 
	77.988,18.919 "/>
<polygon fill="#383838" points="82.524,55.317 99.901,55.317 99.901,53.146 84.841,53.146 84.841,36.491 99.515,36.491 
	99.515,34.318 84.841,34.318 84.841,21.092 99.901,21.092 99.901,18.919 82.524,18.919 "/>
<path fill="#383838" d="M101.396,55.317h2.365l4.874-11.973h15.98l4.873,11.973h2.365L116.65,17.713L101.396,55.317z
	 M109.506,41.173l7.144-17.57l7.095,17.57H109.506z"/>
<polygon fill="#383838" points="154.684,50.827 141.313,17.713 133.495,55.317 135.714,55.317 141.941,25.196 142.039,25.196 
	154.684,56.523 167.379,25.196 167.477,25.196 173.703,55.317 175.924,55.317 168.103,17.713 "/>
<path fill="#383838" d="M195.422,37.986l-6.951-3.618c-2.945-1.402-6.564-2.994-6.564-6.808s2.946-6.95,6.855-6.95
	c3.426,0,5.745,1.689,7.386,4.294l1.639-1.351c-1.736-3.137-5.211-5.115-8.88-5.115c-5.453,0-9.317,3.813-9.317,9.219
	c0,2.896,1.353,5.021,3.765,6.516l6.565,3.477c3.139,1.544,7.338,3.282,7.338,7.385c0,4.828-4.199,8.592-8.979,8.592
	c-4.394,0-7.24-2.702-8.784-6.564l-2.028,0.918c1.688,4.682,5.648,7.818,10.716,7.818c5.888,0,11.392-4.536,11.392-10.571
	C199.574,41.944,198.172,39.724,195.422,37.986z"/>
<g>
	<polygon opacity="0.8" fill="#BC812A" points="56.315,18.919 59.533,28.173 67.771,21.696 46.376,13.13 24.983,4.562 26.27,13.513 
		39.211,28.528 47.239,37.84 49.654,35.94 57.715,29.603 53.997,18.919 	"/>
</g>
<g>
	<path fill="#383838" d="M173.05,60.634c-0.625-0.993-1.509-1.637-2.815-1.637c-1.489,0-2.611,1.195-2.611,2.649
		c0,1.453,1.38,2.061,2.502,2.594l2.649,1.38c1.049,0.662,1.582,1.509,1.582,2.76c0,2.3-2.097,4.029-4.342,4.029
		c-1.932,0-3.44-1.195-4.084-2.98l0.771-0.351c0.589,1.473,1.675,2.503,3.35,2.503c1.821,0,3.422-1.436,3.422-3.274
		c0-1.564-1.601-2.228-2.796-2.815l-2.503-1.325c-0.92-0.569-1.435-1.38-1.435-2.482c0-2.062,1.471-3.515,3.55-3.515
		c1.399,0,2.724,0.755,3.387,1.95L173.05,60.634z"/>
	<path fill="#383838" d="M184.036,72.226h-0.827v-1.527h-0.038c-0.625,1.086-1.987,1.711-3.237,1.711
		c-2.576,0-4.195-2.005-4.195-4.489s1.601-4.379,4.158-4.379c1.307,0,2.558,0.588,3.274,1.655h0.038v-1.472h0.827V72.226z
		 M176.566,67.92c0,1.95,1.287,3.717,3.349,3.717c2.171,0,3.349-1.767,3.349-3.81c0-1.968-1.344-3.514-3.404-3.514
		C177.909,64.313,176.566,66.079,176.566,67.92z"/>
	<path fill="#383838" d="M190.438,65.271c-0.275-0.589-0.827-0.957-1.489-0.957c-0.718,0-1.454,0.589-1.454,1.324
		c0,2.043,4.141,1.049,4.141,4.122c0,1.563-1.215,2.649-2.742,2.649c-1.417,0-2.575-0.864-2.926-2.244l0.81-0.258
		c0.313,1.012,0.994,1.729,2.116,1.729c1.067,0,1.913-0.847,1.913-1.913c0-1.05-0.81-1.38-1.655-1.675
		c-1.16-0.424-2.484-0.92-2.484-2.355c0-1.287,1.085-2.152,2.318-2.152c0.865,0,1.804,0.57,2.172,1.361L190.438,65.271z"/>
	<path fill="#383838" d="M197.339,65.271c-0.276-0.589-0.827-0.957-1.49-0.957c-0.717,0-1.453,0.589-1.453,1.324
		c0,2.043,4.14,1.049,4.14,4.122c0,1.563-1.214,2.649-2.742,2.649c-1.417,0-2.575-0.864-2.926-2.244l0.81-0.258
		c0.313,1.012,0.994,1.729,2.116,1.729c1.067,0,1.914-0.847,1.914-1.913c0-1.05-0.81-1.38-1.656-1.675
		c-1.159-0.424-2.483-0.92-2.483-2.355c0-1.287,1.085-2.152,2.318-2.152c0.864,0,1.803,0.57,2.171,1.361L197.339,65.271z"/>
</g>
</svg>
