<?xml version="1.0" encoding="utf-8"?>
<!-- Generator: Adobe Illustrator 16.0.0, SVG Export Plug-In . SVG Version: 6.00 Build 0)  -->
<!DOCTYPE svg PUBLIC "-//W3C//DTD SVG 1.1//EN" "http://www.w3.org/Graphics/SVG/1.1/DTD/svg11.dtd">
<svg version="1.1" id="Ebene_1" xmlns="http://www.w3.org/2000/svg" xmlns:xlink="http://www.w3.org/1999/xlink" x="0px" y="0px"
	 width="201.693px" height="78.25px" viewBox="0 0 201.693 78.25" enable-background="new 0 0 201.693 78.25" xml:space="preserve">
<polygon fill="none" points="108.828,38.216 123.193,38.216 116.035,20.491 "/>
<g>
	<polygon fill="#F6F6F6" points="26.864,24.294 24.855,10.312 19.755,4.396 10.593,30.653 1.43,56.91 28.75,51.717 56.07,46.524 
		46.01,34.854 30.17,47.308 	"/>
</g>
<polygon fill="#383838" points="66.172,47.128 66.074,47.128 58.413,25.102 56.579,26.544 66.026,53.702 79.368,15.767 
	77.03,15.767 "/>
<polygon fill="#383838" points="81.608,52.485 99.138,52.485 99.138,50.293 83.945,50.293 83.945,33.493 98.749,33.493 
	98.749,31.301 83.945,31.301 83.945,17.958 99.138,17.958 99.138,15.767 81.608,15.767 "/>
<path fill="#383838" d="M100.647,52.485h2.385l4.917-12.077h16.12l4.918,12.077h2.385l-15.338-37.936L100.647,52.485z
	 M108.828,38.216l7.207-17.726l7.158,17.726H108.828z"/>
<polygon fill="#383838" points="154.406,47.956 140.916,14.549 133.027,52.485 135.267,52.485 141.548,22.097 141.648,22.097 
	154.406,53.702 167.212,22.097 167.312,22.097 173.591,52.485 175.833,52.485 167.943,14.549 "/>
<path fill="#383838" d="M195.503,35.002l-7.014-3.652c-2.969-1.412-6.623-3.02-6.623-6.866c0-3.847,2.973-7.013,6.918-7.013
	c3.457,0,5.795,1.705,7.451,4.334l1.654-1.363c-1.754-3.166-5.26-5.162-8.961-5.162c-5.502,0-9.398,3.847-9.398,9.301
	c0,2.922,1.363,5.064,3.799,6.574l6.623,3.506c3.164,1.559,7.402,3.312,7.402,7.451c0,4.87-4.238,8.668-9.059,8.668
	c-4.432,0-7.305-2.727-8.861-6.623l-2.047,0.925c1.703,4.724,5.697,7.889,10.811,7.889c5.941,0,11.492-4.578,11.492-10.665
	C199.691,38.996,198.279,36.755,195.503,35.002z"/>
<g>
	<polygon opacity="0.8" fill="#9EAF53" points="55.167,15.767 58.413,25.102 66.724,18.568 45.14,9.925 23.558,1.281 24.855,10.312 
		37.913,25.46 46.01,34.854 48.447,32.938 56.579,26.544 52.829,15.767 	"/>
</g>
<g>
	<path fill="#383838" d="M138.425,63.787c0.036,1.697-0.215,3.18-1.41,4.483c-1.287,1.393-3.216,2.179-5.109,2.179
		c-3.732,0-6.91-3.143-6.91-6.858c0-3.857,3.161-6.965,7.02-6.965c2.446,0,4.428,1.214,5.838,3.143l-0.694,0.554
		c-1.198-1.786-3.019-2.893-5.198-2.893c-3.286,0-6.108,2.875-6.108,6.107c0,3.322,2.751,6.108,6.108,6.108
		c1.446,0,2.856-0.59,3.966-1.482c1.159-0.982,1.588-2.108,1.643-3.572h-4.822v-0.804H138.425z"/>
	<path fill="#383838" d="M140.441,66.217c-0.053,2.089,1.392,3.482,3.303,3.482c1.289,0,2.323-0.768,2.913-1.875l0.679,0.393
		c-0.749,1.429-2.072,2.232-3.696,2.232c-2.449,0-4.002-1.982-4.002-4.321c0-2.304,1.592-4.287,4.002-4.287
		c2.498,0,3.981,2.001,3.963,4.376H140.441z M146.798,65.466c-0.196-1.518-1.446-2.875-3.142-2.875
		c-1.679,0-3.072,1.322-3.216,2.875H146.798z"/>
	<path fill="#383838" d="M150.351,63.305h0.035c0.482-0.91,1.375-1.464,2.448-1.464c2.123,0,2.713,1.322,2.713,3.447v4.983h-0.802
		v-4.983c0-1.482-0.181-2.696-1.984-2.696c-2.07,0-2.41,1.929-2.41,3.607v4.072h-0.804V62.02h0.804V63.305z"/>
	<path fill="#383838" d="M158.296,66.217c-0.053,2.089,1.392,3.482,3.303,3.482c1.289,0,2.323-0.768,2.913-1.875l0.679,0.393
		c-0.749,1.429-2.072,2.232-3.696,2.232c-2.448,0-4.002-1.982-4.002-4.321c0-2.304,1.592-4.287,4.002-4.287
		c2.498,0,3.981,2.001,3.963,4.376H158.296z M164.654,65.466c-0.196-1.518-1.446-2.875-3.142-2.875
		c-1.679,0-3.072,1.322-3.216,2.875H164.654z"/>
	<path fill="#383838" d="M168.207,63.091h0.037c0.321-0.75,0.911-1.25,1.785-1.25c0.321,0,0.59,0.072,0.875,0.196l-0.429,0.715
		c-0.195-0.107-0.355-0.161-0.571-0.161c-1.804,0-1.697,2.25-1.697,3.464v4.215h-0.802V62.02h0.802V63.091z"/>
	<path fill="#383838" d="M179.619,70.271h-0.805v-1.482h-0.036c-0.605,1.053-1.929,1.66-3.141,1.66
		c-2.501,0-4.073-1.946-4.073-4.357s1.554-4.251,4.036-4.251c1.267,0,2.483,0.572,3.178,1.608h0.036V62.02h0.805V70.271z
		 M172.369,66.091c0,1.893,1.25,3.607,3.25,3.607c2.107,0,3.25-1.714,3.25-3.697c0-1.911-1.305-3.411-3.305-3.411
		C173.671,62.591,172.369,64.305,172.369,66.091z"/>
	<path fill="#383838" d="M183.258,70.271h-0.802V62.77h-0.911v-0.75h0.911v-2.947h0.802v2.947h1.448v0.75h-1.448V70.271z"/>
	<path fill="#383838" d="M193.922,66.145c0,2.447-1.911,4.304-4.339,4.304c-2.376,0-4.289-1.946-4.289-4.286
		c0-2.375,1.894-4.322,4.289-4.322C192.011,61.84,193.922,63.698,193.922,66.145z M186.099,66.163c0,1.875,1.482,3.536,3.43,3.536
		c2.017,0,3.59-1.536,3.59-3.536c0-2.036-1.554-3.572-3.59-3.572C187.563,62.591,186.099,64.251,186.099,66.163z"/>
	<path fill="#383838" d="M196.669,63.091h0.035c0.323-0.75,0.913-1.25,1.787-1.25c0.321,0,0.59,0.072,0.875,0.196l-0.429,0.715
		c-0.195-0.107-0.357-0.161-0.571-0.161c-1.804,0-1.697,2.25-1.697,3.464v4.215h-0.804V62.02h0.804V63.091z"/>
</g>
</svg>
