<?xml version="1.0" encoding="utf-8"?>
<!-- Generator: Adobe Illustrator 16.0.0, SVG Export Plug-In . SVG Version: 6.00 Build 0)  -->
<!DOCTYPE svg PUBLIC "-//W3C//DTD SVG 1.1//EN" "http://www.w3.org/Graphics/SVG/1.1/DTD/svg11.dtd">
<svg version="1.1" id="Ebene_1" xmlns="http://www.w3.org/2000/svg" xmlns:xlink="http://www.w3.org/1999/xlink" x="0px" y="0px"
	 width="201.693px" height="78.25px" viewBox="0 0 201.693 78.25" enable-background="new 0 0 201.693 78.25" xml:space="preserve">
<polygon fill="none" points="109.154,40.116 123.588,40.116 116.396,22.303 "/>
<g>
	<polygon fill="#F6F6F6" points="26.791,26.125 24.773,12.076 19.647,6.131 10.44,32.516 1.233,58.899 28.686,53.683 56.139,48.464 
		46.031,36.737 30.113,49.253 	"/>
</g>
<polygon fill="#383838" points="66.291,49.071 66.192,49.071 58.494,26.937 56.651,28.386 66.142,55.678 79.549,17.557 
	77.202,17.557 "/>
<polygon fill="#383838" points="81.801,54.454 99.417,54.454 99.417,52.252 84.149,52.252 84.149,35.368 99.026,35.368 
	99.026,33.167 84.149,33.167 84.149,19.759 99.417,19.759 99.417,17.557 81.801,17.557 "/>
<path fill="#383838" d="M100.933,54.454h2.397l4.941-12.137h16.198l4.941,12.137h2.397l-15.413-38.121L100.933,54.454z
	 M109.154,40.116l7.242-17.813l7.192,17.813H109.154z"/>
<polygon fill="#383838" points="154.954,49.903 141.398,16.333 133.472,54.454 135.723,54.454 142.035,23.917 142.133,23.917 
	154.954,55.678 167.824,23.917 167.922,23.917 174.234,54.454 176.485,54.454 168.557,16.333 "/>
<path fill="#383838" d="M196.251,36.885l-7.047-3.67c-2.984-1.42-6.655-3.033-6.655-6.9c0-3.866,2.986-7.047,6.95-7.047
	c3.475,0,5.822,1.714,7.487,4.354l1.662-1.37c-1.761-3.181-5.283-5.187-9.004-5.187c-5.528,0-9.444,3.866-9.444,9.347
	c0,2.936,1.37,5.09,3.817,6.606l6.655,3.521c3.181,1.566,7.438,3.33,7.438,7.488c0,4.895-4.257,8.711-9.102,8.711
	c-4.454,0-7.34-2.74-8.905-6.656l-2.056,0.932c1.712,4.746,5.725,7.926,10.863,7.926c5.97,0,11.548-4.6,11.548-10.717
	C200.459,40.899,199.041,38.647,196.251,36.885z"/>
<g>
	<polygon opacity="0.8" fill="#4864A1" points="55.231,17.557 58.494,26.937 66.845,20.371 45.157,11.686 23.469,3 24.773,12.076 
		37.893,27.297 46.031,36.737 48.479,34.811 56.651,28.386 52.881,17.557 	"/>
</g>
<g>
	<path fill="#383838" d="M122.674,61.508h-0.031l-4.178,10.309l-4.162-10.309h-0.031l-2.049,9.913h-0.731l2.573-12.374l4.4,10.897
		l4.416-10.897l2.573,12.374h-0.73L122.674,61.508z"/>
	<path fill="#383838" d="M126.814,67.815c-0.047,1.859,1.239,3.098,2.939,3.098c1.144,0,2.064-0.684,2.589-1.668l0.604,0.35
		c-0.667,1.27-1.843,1.984-3.288,1.984c-2.176,0-3.559-1.762-3.559-3.844c0-2.049,1.414-3.813,3.559-3.813
		c2.224,0,3.542,1.779,3.526,3.893H126.814z M132.469,67.147c-0.175-1.35-1.286-2.557-2.796-2.557c-1.493,0-2.731,1.176-2.859,2.557
		H132.469z"/>
	<path fill="#383838" d="M135.707,71.421h-0.715v-6.672h-0.811v-0.666h0.811v-2.622h0.715v2.622h1.286v0.666h-1.286V71.421z"/>
	<path fill="#383838" d="M138.945,58.317v6.908h0.032c0.429-0.809,1.223-1.303,2.176-1.303c1.891,0,2.415,1.176,2.415,3.066v4.432
		h-0.715v-4.432c0-1.318-0.159-2.398-1.764-2.398c-1.843,0-2.145,1.715-2.145,3.209v3.621h-0.715V58.317H138.945z"/>
	<path fill="#383838" d="M152.968,67.751c0,2.178-1.7,3.828-3.86,3.828c-2.112,0-3.812-1.73-3.812-3.811
		c0-2.113,1.684-3.846,3.812-3.846C151.268,63.923,152.968,65.575,152.968,67.751z M146.01,67.769c0,1.668,1.319,3.145,3.05,3.145
		c1.795,0,3.193-1.367,3.193-3.145c0-1.813-1.382-3.178-3.193-3.178C147.313,64.591,146.01,66.067,146.01,67.769z"/>
	<path fill="#383838" d="M160.43,70.103h-0.031c-0.54,0.938-1.716,1.477-2.796,1.477c-2.224,0-3.621-1.73-3.621-3.875
		s1.382-3.781,3.59-3.781c1.127,0,2.207,0.51,2.827,1.43h0.031v-7.035h0.715v13.104h-0.715V70.103z M160.478,67.624
		c0-1.699-1.159-3.033-2.938-3.033c-1.684,0-2.844,1.525-2.844,3.113c0,1.684,1.112,3.209,2.892,3.209
		C159.461,70.913,160.478,69.388,160.478,67.624z"/>
	<path fill="#383838" d="M170.545,67.751c0,2.178-1.7,3.828-3.86,3.828c-2.112,0-3.813-1.73-3.813-3.811
		c0-2.113,1.685-3.846,3.813-3.846C168.845,63.923,170.545,65.575,170.545,67.751z M163.587,67.769c0,1.668,1.318,3.145,3.05,3.145
		c1.795,0,3.193-1.367,3.193-3.145c0-1.813-1.382-3.178-3.193-3.178C164.89,64.591,163.587,66.067,163.587,67.769z"/>
	<path fill="#383838" d="M172.987,71.421h-0.715V58.317h0.715V71.421z"/>
	<path fill="#383838" d="M182.39,67.751c0,2.178-1.7,3.828-3.86,3.828c-2.112,0-3.812-1.73-3.812-3.811
		c0-2.113,1.684-3.846,3.812-3.846C180.69,63.923,182.39,65.575,182.39,67.751z M175.432,67.769c0,1.668,1.319,3.145,3.05,3.145
		c1.795,0,3.193-1.367,3.193-3.145c0-1.813-1.382-3.178-3.193-3.178C176.735,64.591,175.432,66.067,175.432,67.769z"/>
	<path fill="#383838" d="M190.677,71.071c0,1.129-0.031,2.145-0.73,3.113c-0.683,0.938-1.764,1.414-2.923,1.414
		c-1.922,0-3.511-1.127-3.622-3.145h0.715c0.08,1.525,1.366,2.477,2.844,2.477c0.921,0,1.811-0.316,2.351-1.096
		c0.572-0.842,0.651-1.795,0.651-2.779v-0.906h-0.031c-0.651,0.875-1.748,1.43-2.859,1.43c-2.129,0-3.559-1.795-3.559-3.844
		c0-2.111,1.51-3.813,3.653-3.813c1.191,0,2.081,0.51,2.765,1.43h0.031v-1.27h0.715V71.071z M184.228,67.704
		c0,1.684,1.112,3.209,2.892,3.209c1.874,0,2.891-1.525,2.891-3.289c0-1.699-1.159-3.033-2.938-3.033
		C185.388,64.591,184.228,66.116,184.228,67.704z"/>
	<path fill="#383838" d="M191.786,64.083h0.747l3.129,6.639l2.812-6.639h0.73L194.28,75.71h-0.73l1.763-4.162L191.786,64.083z"/>
</g>
</svg>
