<?xml version="1.0" encoding="utf-8"?>
<!-- Generator: Adobe Illustrator 16.0.0, SVG Export Plug-In . SVG Version: 6.00 Build 0)  -->
<!DOCTYPE svg PUBLIC "-//W3C//DTD SVG 1.1//EN" "http://www.w3.org/Graphics/SVG/1.1/DTD/svg11.dtd">
<svg version="1.1" id="Ebene_1" xmlns="http://www.w3.org/2000/svg" xmlns:xlink="http://www.w3.org/1999/xlink" x="0px" y="0px"
	 width="201.693px" height="78.25px" viewBox="0 0 201.693 78.25" enable-background="new 0 0 201.693 78.25" xml:space="preserve">
<g>
	<polygon fill="none" points="112.843,-35.845 127.683,-35.845 120.289,-54.156 	"/>
	<g>
		<polygon fill="#F6F6F6" points="28.173,-50.227 26.098,-64.671 20.829,-70.782 11.364,-43.658 1.898,-16.534 30.122,-21.898 
			58.344,-27.263 47.952,-39.319 31.588,-26.453 		"/>
	</g>
	<polygon fill="#383838" points="68.779,-26.639 68.678,-26.639 60.764,-49.393 58.869,-47.902 68.628,-19.848 82.411,-59.036 
		79.997,-59.036 	"/>
	<polygon fill="#383838" points="84.724,-21.105 102.834,-21.105 102.834,-23.369 87.139,-23.369 87.139,-40.725 102.432,-40.725 
		102.432,-42.989 87.139,-42.989 87.139,-56.772 102.834,-56.772 102.834,-59.036 84.724,-59.036 	"/>
	<path fill="#383838" d="M104.392-21.105h2.465l5.081-12.476h16.651l5.081,12.476h2.465l-15.847-39.188L104.392-21.105z
		 M112.843-35.845l7.445-18.311l7.395,18.311H112.843z"/>
	<polygon fill="#383838" points="159.928,-25.784 145.993,-60.294 137.844,-21.105 140.158,-21.105 146.647,-52.497 
		146.748,-52.497 159.928,-19.848 173.158,-52.497 173.259,-52.497 179.749,-21.105 182.062,-21.105 173.913,-60.294 	"/>
	<path fill="#383838" d="M202.383-39.165l-7.244-3.773c-3.068-1.459-6.842-3.119-6.842-7.093s3.069-7.244,7.144-7.244
		c3.572,0,5.986,1.761,7.697,4.477l1.71-1.408c-1.811-3.27-5.433-5.333-9.256-5.333c-5.685,0-9.709,3.974-9.709,9.608
		c0,3.019,1.408,5.232,3.924,6.791l6.842,3.622c3.27,1.61,7.646,3.421,7.646,7.697c0,5.031-4.377,8.955-9.357,8.955
		c-4.578,0-7.546-2.817-9.155-6.842l-2.113,0.956c1.761,4.879,5.886,8.149,11.168,8.149c6.138,0,11.872-4.729,11.872-11.017
		C206.709-35.04,205.25-37.354,202.383-39.165z"/>
	<g>
		<polygon opacity="0.5" fill="#4A9EA3" points="57.41,-59.036 60.764,-49.393 69.349,-56.143 47.053,-65.071 24.757,-74 
			26.098,-64.671 39.587,-49.022 47.952,-39.319 50.469,-41.298 58.869,-47.902 54.995,-59.036 		"/>
	</g>
</g>
<polygon fill="none" points="108.828,38.216 123.193,38.216 116.035,20.491 "/>
<g>
	<polygon fill="#F6F6F6" points="26.864,24.294 24.855,10.312 19.755,4.396 10.593,30.653 1.43,56.91 28.75,51.717 56.07,46.524 
		46.01,34.854 30.17,47.308 	"/>
</g>
<polygon fill="#383838" points="66.172,47.128 66.074,47.128 58.413,25.102 56.579,26.544 66.026,53.702 79.368,15.767 
	77.03,15.767 "/>
<polygon fill="#383838" points="81.608,52.485 99.138,52.485 99.138,50.293 83.945,50.293 83.945,33.493 98.749,33.493 
	98.749,31.301 83.945,31.301 83.945,17.958 99.138,17.958 99.138,15.767 81.608,15.767 "/>
<path fill="#383838" d="M100.647,52.485h2.385l4.917-12.077h16.12l4.918,12.077h2.386l-15.339-37.936L100.647,52.485z
	 M108.828,38.216l7.207-17.726l7.158,17.726H108.828z"/>
<polygon fill="#383838" points="154.406,47.956 140.916,14.549 133.028,52.485 135.268,52.485 141.549,22.097 141.648,22.097 
	154.406,53.702 167.213,22.097 167.312,22.097 173.592,52.485 175.833,52.485 167.943,14.549 "/>
<path fill="#383838" d="M195.503,35.002l-7.013-3.652c-2.97-1.412-6.623-3.02-6.623-6.866c0-3.847,2.973-7.013,6.917-7.013
	c3.458,0,5.795,1.705,7.451,4.334l1.654-1.363c-1.753-3.166-5.259-5.162-8.96-5.162c-5.502,0-9.399,3.847-9.399,9.301
	c0,2.922,1.363,5.064,3.799,6.574l6.623,3.506c3.165,1.559,7.402,3.312,7.402,7.451c0,4.87-4.237,8.668-9.059,8.668
	c-4.432,0-7.304-2.727-8.861-6.623l-2.046,0.925c1.703,4.724,5.696,7.889,10.811,7.889c5.94,0,11.492-4.578,11.492-10.665
	C199.692,38.996,198.279,36.755,195.503,35.002z"/>
<g>
	<polygon opacity="0.8" fill="#9EAF53" points="55.167,15.767 58.413,25.102 66.724,18.568 45.14,9.925 23.558,1.281 24.855,10.312 
		37.913,25.46 46.01,34.854 48.447,32.938 56.579,26.544 52.829,15.767 	"/>
</g>
<g>
	<path fill="#383838" d="M140.445,63.55c0.036,1.641-0.206,3.074-1.362,4.334c-1.245,1.346-3.11,2.106-4.939,2.106
		c-3.609,0-6.683-3.039-6.683-6.631c0-3.729,3.057-6.734,6.787-6.734c2.365,0,4.282,1.174,5.646,3.039L139.22,60.2
		c-1.157-1.727-2.918-2.797-5.025-2.797c-3.178,0-5.905,2.78-5.905,5.905c0,3.212,2.659,5.906,5.905,5.906
		c1.398,0,2.763-0.57,3.834-1.433c1.121-0.95,1.536-2.038,1.589-3.454h-4.662V63.55H140.445z"/>
	<path fill="#383838" d="M142.395,65.899c-0.052,2.02,1.346,3.367,3.193,3.367c1.245,0,2.246-0.743,2.815-1.813l0.656,0.38
		c-0.725,1.381-2.004,2.158-3.574,2.158c-2.366,0-3.868-1.917-3.868-4.178c0-2.228,1.538-4.145,3.868-4.145
		c2.417,0,3.851,1.935,3.833,4.231H142.395z M148.542,65.173c-0.19-1.468-1.398-2.78-3.038-2.78c-1.623,0-2.971,1.278-3.108,2.78
		H148.542z"/>
	<path fill="#383838" d="M151.976,63.083h0.034c0.466-0.88,1.329-1.416,2.366-1.416c2.054,0,2.624,1.278,2.624,3.333v4.818h-0.776
		V65c0-1.433-0.174-2.607-1.917-2.607c-2.003,0-2.331,1.865-2.331,3.488v3.938h-0.777v-7.978h0.777V63.083z"/>
	<path fill="#383838" d="M159.659,65.899c-0.052,2.02,1.346,3.367,3.193,3.367c1.245,0,2.246-0.743,2.815-1.813l0.656,0.38
		c-0.725,1.381-2.004,2.158-3.574,2.158c-2.366,0-3.868-1.917-3.868-4.178c0-2.228,1.538-4.145,3.868-4.145
		c2.417,0,3.851,1.935,3.833,4.231H159.659z M165.805,65.173c-0.19-1.468-1.398-2.78-3.038-2.78c-1.623,0-2.971,1.278-3.108,2.78
		H165.805z"/>
	<path fill="#383838" d="M169.241,62.876h0.034c0.312-0.726,0.881-1.209,1.727-1.209c0.311,0,0.57,0.069,0.847,0.19l-0.414,0.691
		c-0.189-0.104-0.345-0.155-0.553-0.155c-1.744,0-1.641,2.175-1.641,3.35v4.076h-0.776v-7.978h0.776V62.876z"/>
	<path fill="#383838" d="M180.274,69.818h-0.777v-1.433h-0.035c-0.587,1.018-1.865,1.605-3.038,1.605
		c-2.417,0-3.938-1.882-3.938-4.213c0-2.331,1.502-4.11,3.902-4.11c1.226,0,2.4,0.553,3.073,1.555h0.035v-1.381h0.777V69.818z
		 M173.263,65.777c0,1.831,1.209,3.488,3.143,3.488c2.038,0,3.144-1.658,3.144-3.574c0-1.848-1.262-3.298-3.195-3.298
		C174.523,62.393,173.263,64.051,173.263,65.777z"/>
	<path fill="#383838" d="M183.793,69.818h-0.776v-7.252h-0.881v-0.725h0.881v-2.849h0.776v2.849h1.4v0.725h-1.4V69.818z"/>
	<path fill="#383838" d="M194.103,65.829c0,2.366-1.848,4.162-4.195,4.162c-2.297,0-4.146-1.882-4.146-4.144
		c0-2.297,1.83-4.179,4.146-4.179C192.255,61.667,194.103,63.463,194.103,65.829z M186.54,65.847c0,1.813,1.433,3.419,3.315,3.419
		c1.95,0,3.471-1.485,3.471-3.419c0-1.969-1.502-3.454-3.471-3.454C187.956,62.393,186.54,63.999,186.54,65.847z"/>
	<path fill="#383838" d="M196.76,62.876h0.033c0.313-0.726,0.883-1.209,1.728-1.209c0.311,0,0.57,0.069,0.846,0.19l-0.414,0.691
		c-0.189-0.104-0.345-0.155-0.552-0.155c-1.745,0-1.641,2.175-1.641,3.35v4.076h-0.777v-7.978h0.777V62.876z"/>
</g>
</svg>
