<?xml version="1.0" encoding="utf-8"?>
<!-- Generator: Adobe Illustrator 16.0.0, SVG Export Plug-In . SVG Version: 6.00 Build 0)  -->
<!DOCTYPE svg PUBLIC "-//W3C//DTD SVG 1.1//EN" "http://www.w3.org/Graphics/SVG/1.1/DTD/svg11.dtd">
<svg version="1.1" id="Ebene_1" xmlns="http://www.w3.org/2000/svg" xmlns:xlink="http://www.w3.org/1999/xlink" x="0px" y="0px"
	 width="201.693px" height="78.25px" viewBox="0 0 201.693 78.25" enable-background="new 0 0 201.693 78.25" xml:space="preserve">
<g>
	<polygon fill="none" points="109.112,39.923 123.483,39.923 116.322,22.189 	"/>
	<g>
		<polygon fill="#F6F6F6" points="27.118,25.994 25.108,12.008 20.006,6.09 10.841,32.357 1.674,58.623 29.005,53.43 56.335,48.233 
			46.271,36.558 30.425,49.019 		"/>
	</g>
	<polygon fill="#383838" points="66.441,48.839 66.343,48.839 58.679,26.802 56.844,28.246 66.294,55.415 79.642,17.464 
		77.303,17.464 	"/>
	<polygon fill="#383838" points="81.882,54.196 99.419,54.196 99.419,52.005 84.219,52.005 84.219,35.196 99.029,35.196 
		99.029,33.004 84.219,33.004 84.219,19.656 99.419,19.656 99.419,17.464 81.882,17.464 	"/>
	<path fill="#383838" d="M100.928,54.196h2.387l4.918-12.081h16.127l4.919,12.081h2.387l-15.345-37.95L100.928,54.196z
		 M109.112,39.923l7.21-17.733l7.161,17.733H109.112z"/>
	<polygon fill="#383838" points="154.708,49.665 141.212,16.246 133.321,54.196 135.563,54.196 141.846,23.797 141.945,23.797 
		154.708,55.415 167.52,23.797 167.619,23.797 173.902,54.196 176.142,54.196 168.25,16.246 	"/>
	<path fill="#383838" d="M195.821,36.708l-7.016-3.654c-2.971-1.413-6.625-3.021-6.625-6.87s2.973-7.015,6.919-7.015
		c3.459,0,5.796,1.706,7.453,4.335l1.655-1.364c-1.753-3.166-5.26-5.163-8.964-5.163c-5.504,0-9.402,3.849-9.402,9.306
		c0,2.922,1.364,5.066,3.801,6.576l6.625,3.506c3.167,1.56,7.404,3.314,7.404,7.455c0,4.872-4.237,8.672-9.061,8.672
		c-4.435,0-7.307-2.728-8.865-6.625l-2.047,0.926c1.704,4.726,5.699,7.891,10.814,7.891c5.943,0,11.497-4.579,11.497-10.669
		C200.01,40.702,198.597,38.461,195.821,36.708z"/>
	<g>
		<polygon opacity="0.8" fill="#97539C" points="55.431,17.464 58.679,26.802 66.993,20.266 45.401,11.62 23.811,2.973 
			25.108,12.008 38.171,27.162 46.271,36.558 48.709,34.642 56.844,28.246 53.093,17.464 		"/>
	</g>
</g>
<g>
	<path fill="#383838" d="M120.369,59.71c-1.018-1.244-2.806-2.086-4.436-2.086c-3.296,0-6.014,2.84-6.014,6.084
		c0,1.542,0.667,2.997,1.771,4.084c1.105,1.052,2.683,1.823,4.243,1.823c1.525,0,3.453-0.824,4.436-2.016v1.156
		c-1.245,1.034-2.771,1.648-4.4,1.648c-3.682,0-6.89-3.067-6.89-6.768c0-3.752,3.155-6.802,6.907-6.802
		c1.596,0,3.208,0.632,4.383,1.719V59.71z"/>
	<path fill="#383838" d="M130.432,66.18c0,2.401-1.876,4.225-4.26,4.225c-2.332,0-4.208-1.911-4.208-4.208
		c0-2.332,1.858-4.242,4.208-4.242C128.556,61.954,130.432,63.777,130.432,66.18z M122.753,66.196c0,1.842,1.455,3.473,3.366,3.473
		c1.981,0,3.523-1.509,3.523-3.473c0-1.998-1.525-3.506-3.523-3.506C124.191,62.69,122.753,64.321,122.753,66.196z"/>
	<path fill="#383838" d="M133.132,63.146h0.035c0.367-0.754,1.174-1.192,2.033-1.192c1.035,0,1.858,0.525,2.278,1.473
		c0.438-0.964,1.333-1.473,2.367-1.473c2.086,0,2.507,1.42,2.507,3.19v5.084h-0.788V65.04c0-1.245-0.193-2.35-1.735-2.35
		c-1.684,0-2.087,1.473-2.087,2.876v4.662h-0.789v-4.996c0-1.262-0.228-2.542-1.806-2.542c-1.7,0-2.016,1.771-2.016,3.086v4.452
		h-0.789v-8.1h0.789V63.146z"/>
	<path fill="#383838" d="M145.843,63.585h0.034c0.596-1.035,1.894-1.631,3.086-1.631c2.472,0,3.997,1.929,3.997,4.296
		c0,2.366-1.525,4.154-3.963,4.154c-1.244,0-2.453-0.543-3.12-1.578h-0.034v6.137h-0.79V62.129h0.79V63.585z M145.79,66.354
		c0,1.894,1.28,3.314,3.227,3.314c1.894,0,3.155-1.596,3.155-3.402c0-1.858-1.21-3.576-3.19-3.576
		C146.912,62.69,145.79,64.408,145.79,66.354z"/>
	<path fill="#383838" d="M162.55,66.18c0,2.401-1.877,4.225-4.261,4.225c-2.332,0-4.208-1.911-4.208-4.208
		c0-2.332,1.858-4.242,4.208-4.242C160.673,61.954,162.55,63.777,162.55,66.18z M154.871,66.196c0,1.842,1.455,3.473,3.366,3.473
		c1.981,0,3.523-1.509,3.523-3.473c0-1.998-1.525-3.506-3.523-3.506C156.308,62.69,154.871,64.321,154.871,66.196z"/>
	<path fill="#383838" d="M165.25,63.393h0.035c0.474-0.895,1.35-1.438,2.401-1.438c2.087,0,2.665,1.297,2.665,3.384v4.891h-0.789
		v-4.891c0-1.455-0.175-2.647-1.945-2.647c-2.034,0-2.367,1.894-2.367,3.541v3.997h-0.789v-8.1h0.789V63.393z"/>
	<path fill="#383838" d="M173.051,66.25c-0.053,2.051,1.368,3.419,3.243,3.419c1.263,0,2.279-0.755,2.857-1.842l0.667,0.386
		c-0.736,1.402-2.033,2.191-3.629,2.191c-2.402,0-3.927-1.945-3.927-4.242c0-2.262,1.56-4.208,3.927-4.208
		c2.455,0,3.909,1.964,3.892,4.296H173.051z M179.292,65.514c-0.192-1.491-1.42-2.823-3.085-2.823c-1.648,0-3.016,1.297-3.156,2.823
		H179.292z"/>
	<path fill="#383838" d="M182.782,63.393h0.035c0.474-0.895,1.35-1.438,2.401-1.438c2.087,0,2.665,1.297,2.665,3.384v4.891h-0.789
		v-4.891c0-1.455-0.175-2.647-1.945-2.647c-2.034,0-2.367,1.894-2.367,3.541v3.997h-0.789v-8.1h0.789V63.393z"/>
	<path fill="#383838" d="M191.459,70.229h-0.789v-7.363h-0.894v-0.736h0.894v-2.893h0.789v2.893h1.42v0.736h-1.42V70.229z"/>
	<path fill="#383838" d="M197.649,63.602c-0.263-0.561-0.789-0.911-1.42-0.911c-0.684,0-1.385,0.561-1.385,1.263
		c0,1.945,3.944,0.999,3.944,3.927c0,1.49-1.157,2.524-2.612,2.524c-1.351,0-2.454-0.823-2.788-2.139l0.771-0.246
		c0.299,0.965,0.947,1.649,2.017,1.649c1.017,0,1.823-0.808,1.823-1.824c0-1-0.771-1.314-1.578-1.595
		c-1.104-0.404-2.366-0.877-2.366-2.244c0-1.228,1.034-2.052,2.209-2.052c0.824,0,1.718,0.544,2.069,1.297L197.649,63.602z"/>
</g>
<polygon fill="none" points="109.092,39.992 123.422,39.992 116.282,22.311 "/>
<g>
	<polygon fill="#F6F6F6" points="27.334,26.104 25.331,12.158 20.243,6.256 11.103,32.447 1.963,58.639 29.215,53.459 
		56.467,48.279 46.432,36.637 30.632,49.063 	"/>
</g>
</svg>
