<?xml version="1.0" encoding="utf-8"?>
<!-- Generator: Adobe Illustrator 16.0.0, SVG Export Plug-In . SVG Version: 6.00 Build 0)  -->
<!DOCTYPE svg PUBLIC "-//W3C//DTD SVG 1.1//EN" "http://www.w3.org/Graphics/SVG/1.1/DTD/svg11.dtd">
<svg version="1.1" id="Ebene_1" xmlns="http://www.w3.org/2000/svg" xmlns:xlink="http://www.w3.org/1999/xlink" x="0px" y="0px"
	 width="201.693px" height="78.25px" viewBox="0 0 201.693 78.25" enable-background="new 0 0 201.693 78.25" xml:space="preserve">
<g>
	<polygon fill="none" points="109.427,39.293 123.527,39.293 116.501,21.893 	"/>
	<polygon fill="none" points="109.506,41.173 123.745,41.173 116.65,23.602 	"/>
	<g>
		<polygon fill="#F6F6F6" points="28.26,27.373 26.27,13.513 21.213,7.649 12.131,33.677 3.049,59.702 30.13,54.556 57.211,49.409 
			47.239,37.84 31.538,50.186 		"/>
	</g>
	<polygon fill="#383838" points="67.224,50.008 67.126,50.008 59.533,28.173 57.715,29.603 67.078,56.523 80.304,18.919 
		77.988,18.919 	"/>
	<polygon fill="#383838" points="82.524,55.317 99.901,55.317 99.901,53.145 84.841,53.145 84.841,36.491 99.515,36.491 
		99.515,34.318 84.841,34.318 84.841,21.092 99.901,21.092 99.901,18.919 82.524,18.919 	"/>
	<path fill="#383838" d="M101.396,55.317h2.365l4.874-11.973h15.98l4.873,11.973h2.365L116.65,17.713L101.396,55.317z
		 M109.506,41.173l7.144-17.571l7.095,17.571H109.506z"/>
	<polygon fill="#383838" points="154.684,50.827 141.313,17.713 133.495,55.317 135.714,55.317 141.941,25.196 142.039,25.196 
		154.684,56.523 167.379,25.196 167.477,25.196 173.703,55.317 175.924,55.317 168.103,17.713 	"/>
	<path fill="#383838" d="M195.422,37.986l-6.951-3.619c-2.945-1.401-6.564-2.994-6.564-6.807c0-3.814,2.946-6.951,6.855-6.951
		c3.426,0,5.745,1.689,7.386,4.295l1.639-1.351c-1.736-3.137-5.211-5.116-8.88-5.116c-5.453,0-9.317,3.813-9.317,9.219
		c0,2.896,1.353,5.021,3.765,6.516l6.565,3.476c3.139,1.544,7.338,3.283,7.338,7.385c0,4.828-4.199,8.592-8.979,8.592
		c-4.394,0-7.24-2.703-8.784-6.565l-2.028,0.918c1.688,4.681,5.648,7.818,10.716,7.818c5.888,0,11.392-4.537,11.392-10.572
		C199.574,41.944,198.172,39.724,195.422,37.986z"/>
	<g>
		<polygon opacity="0.8" fill="#BC812A" points="56.315,18.919 59.533,28.173 67.771,21.696 46.376,13.13 24.983,4.562 
			26.27,13.513 39.211,28.529 47.239,37.84 49.654,35.941 57.715,29.603 53.997,18.919 		"/>
	</g>
	<g>
		<path d="M176.408,60.251c-0.535-0.851-1.292-1.403-2.411-1.403c-1.276,0-2.238,1.024-2.238,2.27s1.183,1.766,2.144,2.223
			l2.27,1.183c0.898,0.567,1.355,1.292,1.355,2.364c0,1.97-1.797,3.451-3.72,3.451c-1.655,0-2.947-1.024-3.499-2.553l0.662-0.3
			c0.504,1.261,1.435,2.144,2.869,2.144c1.56,0,2.932-1.229,2.932-2.806c0-1.34-1.372-1.907-2.396-2.411l-2.144-1.136
			c-0.788-0.488-1.229-1.182-1.229-2.127c0-1.766,1.261-3.011,3.042-3.011c1.198,0,2.333,0.646,2.9,1.671L176.408,60.251z"/>
		<path d="M185.817,70.182h-0.709v-1.309h-0.032c-0.535,0.931-1.702,1.466-2.773,1.466c-2.207,0-3.594-1.718-3.594-3.846
			s1.371-3.751,3.562-3.751c1.119,0,2.191,0.504,2.806,1.418h0.032v-1.261h0.709V70.182z M179.417,66.493
			c0,1.671,1.104,3.184,2.868,3.184c1.86,0,2.869-1.513,2.869-3.263c0-1.687-1.15-3.01-2.916-3.01
			C180.568,63.404,179.417,64.917,179.417,66.493z"/>
		<path d="M191.3,64.224c-0.236-0.505-0.709-0.819-1.276-0.819c-0.615,0-1.245,0.504-1.245,1.135c0,1.749,3.546,0.898,3.546,3.53
			c0,1.34-1.04,2.27-2.349,2.27c-1.214,0-2.206-0.74-2.506-1.923l0.693-0.221c0.269,0.867,0.852,1.481,1.813,1.481
			c0.914,0,1.64-0.725,1.64-1.639c0-0.898-0.693-1.183-1.419-1.435c-0.993-0.362-2.128-0.788-2.128-2.018
			c0-1.104,0.931-1.844,1.986-1.844c0.741,0,1.545,0.488,1.86,1.166L191.3,64.224z"/>
		<path d="M197.209,64.224c-0.236-0.505-0.709-0.819-1.276-0.819c-0.615,0-1.245,0.504-1.245,1.135c0,1.749,3.546,0.898,3.546,3.53
			c0,1.34-1.04,2.27-2.349,2.27c-1.214,0-2.206-0.74-2.506-1.923l0.693-0.221c0.269,0.867,0.852,1.481,1.813,1.481
			c0.914,0,1.64-0.725,1.64-1.639c0-0.898-0.693-1.183-1.419-1.435c-0.993-0.362-2.128-0.788-2.128-2.018
			c0-1.104,0.931-1.844,1.986-1.844c0.741,0,1.545,0.488,1.86,1.166L197.209,64.224z"/>
	</g>
</g>
</svg>
