<?xml version="1.0" encoding="utf-8"?>
<!-- Generator: Adobe Illustrator 16.0.0, SVG Export Plug-In . SVG Version: 6.00 Build 0)  -->
<!DOCTYPE svg PUBLIC "-//W3C//DTD SVG 1.1//EN" "http://www.w3.org/Graphics/SVG/1.1/DTD/svg11.dtd">
<svg version="1.1" id="Ebene_1" xmlns="http://www.w3.org/2000/svg" xmlns:xlink="http://www.w3.org/1999/xlink" x="0px" y="0px"
	 width="208.083px" height="60.551px" viewBox="0 0 208.083 60.551" enable-background="new 0 0 208.083 60.551"
	 xml:space="preserve">
<g>
	<polygon fill="none" points="112.843,39.155 127.683,39.155 120.289,20.844 	"/>
	<g>
		<polygon fill="#F6F6F6" points="28.173,24.773 26.098,10.329 20.829,4.218 11.364,31.342 1.898,58.466 30.122,53.102 
			58.344,47.737 47.952,35.681 31.588,48.547 		"/>
	</g>
	<polygon fill="#383838" points="68.779,48.361 68.678,48.361 60.764,25.607 58.869,27.098 68.628,55.152 82.411,15.964 
		79.997,15.964 	"/>
	<polygon fill="#383838" points="84.724,53.895 102.834,53.895 102.834,51.631 87.139,51.631 87.139,34.275 102.432,34.275 
		102.432,32.011 87.139,32.011 87.139,18.228 102.834,18.228 102.834,15.964 84.724,15.964 	"/>
	<path fill="#383838" d="M104.392,53.895h2.465l5.081-12.476h16.651l5.081,12.476h2.465l-15.847-39.188L104.392,53.895z
		 M112.843,39.155l7.445-18.311l7.395,18.311H112.843z"/>
	<polygon fill="#383838" points="159.928,49.216 145.993,14.706 137.844,53.895 140.158,53.895 146.647,22.503 146.748,22.503 
		159.928,55.152 173.158,22.503 173.259,22.503 179.749,53.895 182.062,53.895 173.913,14.706 	"/>
	<path fill="#383838" d="M202.383,35.835l-7.244-3.773c-3.068-1.459-6.842-3.119-6.842-7.093s3.069-7.244,7.144-7.244
		c3.572,0,5.986,1.761,7.697,4.477l1.71-1.408c-1.811-3.27-5.433-5.333-9.256-5.333c-5.685,0-9.709,3.974-9.709,9.608
		c0,3.019,1.408,5.232,3.924,6.791l6.842,3.622c3.27,1.61,7.646,3.421,7.646,7.697c0,5.031-4.377,8.955-9.357,8.955
		c-4.578,0-7.546-2.817-9.155-6.842l-2.113,0.956c1.761,4.879,5.886,8.149,11.168,8.149c6.138,0,11.872-4.729,11.872-11.017
		C206.709,39.96,205.25,37.646,202.383,35.835z"/>
	<g>
		<polygon opacity="0.5" fill="#4A9EA3" points="57.41,15.964 60.764,25.607 69.349,18.857 47.053,9.929 24.757,1 26.098,10.329 
			39.587,25.978 47.952,35.681 50.469,33.702 58.869,27.098 54.995,15.964 		"/>
	</g>
</g>
</svg>
