<?xml version="1.0" encoding="utf-8"?>
<!-- Generator: Adobe Illustrator 16.0.0, SVG Export Plug-In . SVG Version: 6.00 Build 0)  -->
<!DOCTYPE svg PUBLIC "-//W3C//DTD SVG 1.1//EN" "http://www.w3.org/Graphics/SVG/1.1/DTD/svg11.dtd">
<svg version="1.1" id="Ebene_1" xmlns="http://www.w3.org/2000/svg" xmlns:xlink="http://www.w3.org/1999/xlink" x="0px" y="0px"
	 width="201.693px" height="78.25px" viewBox="0 0 201.693 78.25" enable-background="new 0 0 201.693 78.25" xml:space="preserve">
<polygon fill="none" points="109.092,39.992 123.422,39.992 116.282,22.311 "/>
<g>
	<polygon fill="#F6F6F6" points="27.334,26.104 25.331,12.158 20.243,6.256 11.103,32.447 1.963,58.639 29.215,53.459 
		56.467,48.279 46.432,36.637 30.632,49.063 	"/>
</g>
<polygon fill="#383838" points="66.543,48.883 66.446,48.883 58.804,26.908 56.974,28.348 66.398,55.439 79.708,17.598 
	77.375,17.598 "/>
<polygon fill="#383838" points="81.941,54.225 99.427,54.225 99.427,52.039 84.271,52.039 84.271,35.279 99.039,35.279 
	99.039,33.094 84.271,33.094 84.271,19.783 99.427,19.783 99.427,17.598 81.941,17.598 "/>
<path fill="#383838" d="M100.932,54.225h2.38l4.905-12.047h16.08l4.904,12.047h2.381l-15.301-37.842L100.932,54.225z
	 M109.092,39.992l7.189-17.682l7.141,17.682H109.092z"/>
<polygon fill="#383838" points="154.557,49.707 141.1,16.383 133.233,54.225 135.469,54.225 141.733,23.912 141.831,23.912 
	154.557,55.439 167.333,23.912 167.432,23.912 173.696,54.225 175.93,54.225 168.061,16.383 "/>
<path fill="#383838" d="M195.553,36.785l-6.996-3.643c-2.963-1.408-6.605-3.012-6.605-6.85s2.965-6.996,6.898-6.996
	c3.449,0,5.781,1.701,7.434,4.322l1.648-1.359c-1.748-3.156-5.244-5.148-8.938-5.148c-5.488,0-9.375,3.84-9.375,9.279
	c0,2.914,1.361,5.053,3.789,6.557l6.607,3.498c3.158,1.553,7.383,3.303,7.383,7.432c0,4.859-4.225,8.648-9.035,8.648
	c-4.422,0-7.285-2.721-8.84-6.607l-2.041,0.924c1.699,4.711,5.684,7.869,10.785,7.869c5.924,0,11.463-4.566,11.463-10.639
	C199.731,40.77,198.321,38.535,195.553,36.785z"/>
<g>
	<polygon opacity="0.8" fill="#C45454" points="55.566,17.598 58.804,26.908 67.094,20.391 45.564,11.77 24.037,3.148 
		25.331,12.158 38.356,27.268 46.432,36.637 48.863,34.727 56.974,28.348 53.234,17.598 	"/>
</g>
<g>
	<path fill="#383838" d="M130.554,57.011v12.956c0,1.646-0.403,3.012-2.329,3.012c-0.962,0-1.786-0.578-2.188-1.435l0.631-0.474
		c0.297,0.63,0.928,1.121,1.627,1.121c1.313,0,1.419-1.226,1.419-2.225V57.011H130.554z"/>
	<path fill="#383838" d="M140.429,70.213h-0.786V68.76h-0.036c-0.595,1.032-1.892,1.627-3.081,1.627
		c-2.451,0-3.992-1.907-3.992-4.271s1.523-4.167,3.956-4.167c1.243,0,2.435,0.56,3.117,1.575h0.036v-1.4h0.786V70.213z
		 M133.32,66.115c0,1.856,1.226,3.537,3.188,3.537c2.065,0,3.188-1.681,3.188-3.625c0-1.873-1.279-3.344-3.239-3.344
		C134.599,62.684,133.32,64.364,133.32,66.115z"/>
	<path fill="#383838" d="M145.596,68.795l2.872-6.672h0.804l-3.693,8.527l-3.713-8.527h0.807L145.596,68.795z"/>
	<path fill="#383838" d="M157.818,70.213h-0.788V68.76h-0.036c-0.595,1.032-1.89,1.627-3.081,1.627
		c-2.451,0-3.991-1.907-3.991-4.271s1.522-4.167,3.957-4.167c1.243,0,2.433,0.56,3.115,1.575h0.036v-1.4h0.788V70.213z
		 M150.709,66.115c0,1.856,1.226,3.537,3.187,3.537c2.066,0,3.186-1.681,3.186-3.625c0-1.873-1.277-3.344-3.239-3.344
		C151.987,62.684,150.709,64.364,150.709,66.115z"/>
	<path fill="#383838" d="M166.695,59.181c-0.595-0.944-1.437-1.558-2.68-1.558c-1.417,0-2.485,1.138-2.485,2.521
		s1.313,1.961,2.382,2.469l2.521,1.313c0.997,0.63,1.507,1.437,1.507,2.627c0,2.188-1.996,3.833-4.134,3.833
		c-1.838,0-3.272-1.137-3.886-2.836l0.734-0.333c0.562,1.401,1.593,2.382,3.188,2.382c1.732,0,3.257-1.366,3.257-3.116
		c0-1.489-1.524-2.119-2.662-2.68l-2.381-1.261c-0.876-0.542-1.365-1.313-1.365-2.363c0-1.962,1.399-3.345,3.379-3.345
		c1.331,0,2.591,0.719,3.221,1.856L166.695,59.181z"/>
	<path fill="#383838" d="M176.239,63.997c-0.771-0.841-1.698-1.313-2.854-1.313c-1.91,0-3.345,1.629-3.345,3.467
		c0,1.839,1.417,3.502,3.326,3.502c1.156,0,2.241-0.561,2.976-1.453v1.067c-0.822,0.719-1.855,1.12-2.941,1.12
		c-2.398,0-4.149-1.873-4.149-4.236c0-2.347,1.786-4.202,4.167-4.202c1.05,0,2.015,0.315,2.82,0.998V63.997z"/>
	<path fill="#383838" d="M179.181,63.174h0.033c0.315-0.735,0.895-1.226,1.753-1.226c0.313,0,0.576,0.069,0.855,0.192l-0.419,0.7
		c-0.193-0.105-0.352-0.157-0.561-0.157c-1.769,0-1.662,2.206-1.662,3.396v4.133h-0.789v-8.09h0.789V63.174z"/>
	<path fill="#383838" d="M184.677,59.427c0,0.403-0.313,0.718-0.717,0.718s-0.719-0.314-0.719-0.718
		c0-0.386,0.315-0.718,0.719-0.718S184.677,59.041,184.677,59.427z M184.345,70.213h-0.788v-8.09h0.788V70.213z"/>
	<path fill="#383838" d="M188.146,63.576h0.033c0.595-1.033,1.893-1.628,3.082-1.628c2.469,0,3.993,1.926,3.993,4.29
		c0,2.363-1.524,4.148-3.958,4.148c-1.243,0-2.45-0.541-3.117-1.575h-0.033v6.129h-0.789V62.123h0.789V63.576z M188.091,66.343
		c0,1.891,1.279,3.31,3.224,3.31c1.89,0,3.151-1.594,3.151-3.397c0-1.856-1.21-3.571-3.188-3.571
		C189.213,62.684,188.091,64.398,188.091,66.343z"/>
	<path fill="#383838" d="M198.039,70.213h-0.788v-7.354h-0.893v-0.735h0.893v-2.889h0.788v2.889h1.419v0.735h-1.419V70.213z"/>
</g>
</svg>
