<?xml version="1.0" encoding="utf-8"?>
<!-- Generator: Adobe Illustrator 16.0.0, SVG Export Plug-In . SVG Version: 6.00 Build 0)  -->
<!DOCTYPE svg PUBLIC "-//W3C//DTD SVG 1.1//EN" "http://www.w3.org/Graphics/SVG/1.1/DTD/svg11.dtd">
<svg version="1.1" id="Ebene_1" xmlns="http://www.w3.org/2000/svg" xmlns:xlink="http://www.w3.org/1999/xlink" x="0px" y="0px"
	 width="136.25px" height="116.5px" viewBox="0 0 136.25 116.5" enable-background="new 0 0 136.25 116.5" xml:space="preserve">
<g>
	<polygon fill="#F6F6F6" points="54.751,-84.524 50.877,-111.491 41.042,-122.9 23.371,-72.261 5.699,-21.621 58.39,-31.637 
		111.081,-41.653 91.678,-64.16 61.128,-40.141 	"/>
</g>
<g>
	<g opacity="0.5">
		<path fill="#4A9EA3" d="M96.377-67.855l-4.699,3.695L76.061-82.276l-25.184-29.214l-2.502-17.417L90-112.238l41.626,16.668"/>
	</g>
</g>
<g>
	<polygon fill="#F6F6F6" points="54.751,48.476 50.877,21.509 41.042,10.1 23.371,60.739 5.699,111.379 58.39,101.363 
		111.081,91.347 91.678,68.84 61.128,92.859 	"/>
</g>
<g>
	<g opacity="0.5">
		<path fill="#9EAE52" d="M96.377,65.145l-4.699,3.695L76.061,50.724L50.877,21.509L48.375,4.092L90,20.762l41.626,16.668"/>
	</g>
</g>
</svg>
