<svg baseProfile="tiny" xmlns="http://www.w3.org/2000/svg" preserveAspectRatio="xMinYMin meet" viewBox="0 0 605 595" width="605" height="595"><g transform="translate(565 300)"><path fill-rule="evenodd" clip-rule="evenodd" fill="#373737" d="M16.29 0C7.293 0 0 7.294 0 16.29c0 7.2 4.667 13.304 11.14 15.46.815.148 1.113-.354 1.113-.785 0-.387-.014-1.412-.022-2.77-4.53.983-5.485-2.185-5.485-2.185-.74-1.88-1.81-2.383-1.81-2.383-1.478-1.01.113-.99.113-.99 1.635.115 2.495 1.68 2.495 1.68 1.453 2.488 3.813 1.77 4.74 1.354.15-1.053.57-1.77 1.035-2.18-3.617-.41-7.42-1.807-7.42-8.05 0-1.777.635-3.23 1.677-4.37-.167-.412-.727-2.07.16-4.31 0 0 1.368-.44 4.48 1.67 1.298-.36 2.692-.544 4.077-.55 1.385.006 2.777.19 4.08.55 3.11-2.11 4.475-1.67 4.475-1.67.89 2.24.33 3.897.162 4.31 1.042 1.14 1.673 2.593 1.673 4.37 0 6.26-3.808 7.636-7.437 8.04.585.503 1.105 1.497 1.105 3.017 0 2.178-.02 3.934-.02 4.47 0 .435.294.94 1.12.782 6.47-2.16 11.13-8.26 11.13-15.456C32.58 7.294 25.29 0 16.29 0z"/></g><g transform="translate(145 300)"><g><path fill="none" d="M109.112 39.923h14.37l-7.16-17.734z"/><g><path fill="#F6F6F6" d="M27.118 25.994l-2.01-13.986-5.102-5.918-9.165 26.267-9.165 26.266 27.33-5.193 27.33-5.197-10.063-11.675-15.845 12.46z"/></g><path fill="#383838" d="M66.44 48.84h-.097L58.68 26.8l-1.836 1.444 9.45 27.17 13.348-37.952h-2.34zm15.442 5.356H99.42v-2.19h-15.2v-16.81h14.81v-2.192H84.22V19.656h15.2v-2.192H81.88zm19.046 0h2.387l4.918-12.08h16.127l4.92 12.08h2.386l-15.345-37.95-15.39 37.95zm8.184-14.273l7.21-17.733 7.16 17.733h-14.37zm45.596 9.742l-13.496-33.42-7.89 37.95h2.24l6.284-30.398h.1l12.762 31.618 12.812-31.618h.1l6.282 30.4h2.24l-7.892-37.95zm41.112-12.957l-7.015-3.654c-2.97-1.413-6.625-3.02-6.625-6.87s2.973-7.015 6.92-7.015c3.458 0 5.795 1.704 7.452 4.333l1.655-1.364c-1.753-3.167-5.26-5.164-8.964-5.164-5.504 0-9.402 3.85-9.402 9.306 0 2.922 1.366 5.066 3.803 6.576l6.625 3.505c3.167 1.56 7.404 3.314 7.404 7.455 0 4.872-4.236 8.672-9.06 8.672-4.435 0-7.307-2.728-8.865-6.625l-2.047.926c1.704 4.727 5.7 7.89 10.814 7.89 5.943 0 11.497-4.577 11.497-10.667 0-3.313-1.412-5.554-4.19-7.307z"/><g><path opacity=".8" fill="#97539C" d="M55.43 17.464l3.25 9.338 8.313-6.536L45.4 11.62 23.81 2.973l1.298 9.035L38.17 27.162l8.1 9.396 2.44-1.916 8.134-6.396-3.75-10.782z"/></g></g><g fill="#383838"><path d="M120.37 59.71c-1.02-1.244-2.807-2.086-4.437-2.086-3.296 0-6.014 2.84-6.014 6.084 0 1.542.665 2.997 1.77 4.084 1.104 1.052 2.682 1.823 4.242 1.823 1.525 0 3.453-.824 4.436-2.016v1.154c-1.246 1.034-2.772 1.648-4.4 1.648-3.683 0-6.89-3.067-6.89-6.768 0-3.752 3.154-6.802 6.906-6.802 1.596 0 3.208.632 4.383 1.72v1.157zm10.062 6.47c0 2.4-1.876 4.225-4.26 4.225-2.332 0-4.208-1.91-4.208-4.208 0-2.332 1.858-4.242 4.208-4.242 2.384 0 4.26 1.822 4.26 4.225zm-7.68.016c0 1.842 1.456 3.473 3.367 3.473 1.98 0 3.52-1.51 3.52-3.475 0-1.998-1.524-3.506-3.522-3.506-1.93 0-3.367 1.63-3.367 3.505zm10.38-3.05h.035c.367-.754 1.174-1.192 2.033-1.192 1.035 0 1.858.525 2.278 1.473.438-.964 1.333-1.473 2.367-1.473 2.086 0 2.507 1.42 2.507 3.19v5.084h-.788V65.04c0-1.245-.193-2.35-1.735-2.35-1.686 0-2.09 1.473-2.09 2.876v4.662h-.79v-4.996c0-1.262-.226-2.542-1.804-2.542-1.7 0-2.016 1.77-2.016 3.086v4.452h-.788v-8.1h.79v1.018zm12.71.44h.035c.596-1.036 1.894-1.63 3.086-1.63 2.472 0 3.997 1.927 3.997 4.294 0 2.366-1.525 4.154-3.963 4.154-1.244 0-2.453-.543-3.12-1.578h-.034v6.137h-.79V62.13h.79v1.455zm-.052 2.77c0 1.892 1.28 3.312 3.227 3.312 1.894 0 3.155-1.596 3.155-3.402 0-1.858-1.21-3.576-3.19-3.576-2.07 0-3.192 1.718-3.192 3.664zm16.76-.176c0 2.4-1.877 4.225-4.26 4.225-2.333 0-4.21-1.91-4.21-4.208 0-2.332 1.86-4.242 4.21-4.242 2.383 0 4.26 1.822 4.26 4.225zm-7.68.016c0 1.842 1.456 3.473 3.367 3.473 1.98 0 3.523-1.51 3.523-3.475 0-1.998-1.525-3.506-3.523-3.506-1.93 0-3.366 1.63-3.366 3.505zm10.38-2.803h.035c.474-.895 1.35-1.438 2.4-1.438 2.088 0 2.666 1.297 2.666 3.384v4.89h-.787v-4.89c0-1.457-.175-2.65-1.945-2.65-2.034 0-2.367 1.895-2.367 3.54v4h-.79v-8.1h.79v1.262zm7.8 2.857c-.052 2.05 1.37 3.42 3.244 3.42 1.263 0 2.28-.756 2.857-1.843l.67.386c-.737 1.402-2.034 2.19-3.63 2.19-2.4 0-3.927-1.944-3.927-4.24 0-2.263 1.56-4.21 3.927-4.21 2.454 0 3.908 1.965 3.89 4.297h-7.03zm6.242-.736c-.192-1.49-1.42-2.823-3.085-2.823-1.648 0-3.016 1.3-3.156 2.825h6.243zm3.49-2.12h.035c.474-.896 1.35-1.44 2.4-1.44 2.088 0 2.666 1.298 2.666 3.385v4.89h-.79v-4.89c0-1.457-.174-2.65-1.944-2.65-2.036 0-2.37 1.895-2.37 3.54v4h-.79v-8.1h.79v1.262zm8.678 6.836h-.79v-7.364h-.894v-.736h.894v-2.893h.79v2.893h1.42v.736h-1.42v7.363zm6.19-6.628c-.264-.56-.79-.91-1.42-.91-.685 0-1.386.56-1.386 1.262 0 1.945 3.944 1 3.944 3.927 0 1.49-1.157 2.526-2.612 2.526-1.35 0-2.454-.823-2.788-2.14l.77-.245c.3.966.948 1.65 2.018 1.65 1.017 0 1.823-.81 1.823-1.824 0-1-.773-1.314-1.58-1.595-1.104-.403-2.366-.876-2.366-2.243 0-1.228 1.034-2.052 2.21-2.052.823 0 1.717.544 2.068 1.297l-.684.352z"/></g><path fill="none" d="M109.092 39.992h14.33l-7.14-17.68z"/><g><path fill="#F6F6F6" d="M27.334 26.104L25.33 12.158l-5.087-5.902-9.14 26.19-9.14 26.193 27.252-5.18 27.252-5.18-10.035-11.644-15.8 12.426z"/></g></g><g transform="translate(355 300)"><path fill="none" d="M108.828 38.216h14.365l-7.158-17.725z"/><g><path fill="#F6F6F6" d="M26.864 24.294l-2.01-13.982-5.1-5.916-9.16 26.257L1.43 56.91l27.32-5.193 27.32-5.193-10.06-11.67-15.84 12.454z"/></g><path fill="#383838" d="M66.172 47.128h-.098l-7.66-22.026-1.835 1.442 9.445 27.158 13.342-37.935H77.03zm15.436 5.357h17.53v-2.192H83.945v-16.8H98.75V31.3H83.944V17.96h15.193v-2.19h-17.53zm19.04 0h2.384l4.917-12.077h16.12l4.916 12.077h2.385L116.035 14.55l-15.387 37.935zm8.18-14.27l7.207-17.725 7.158 17.726h-14.365zm45.578 9.74l-13.49-33.406-7.89 37.934h2.24l6.282-30.388h.1L154.406 53.7l12.806-31.604h.1l6.28 30.388h2.24l-7.89-37.936zm41.097-12.953l-7.014-3.652c-2.97-1.412-6.625-3.02-6.625-6.866 0-3.847 2.973-7.013 6.918-7.013 3.457 0 5.795 1.707 7.45 4.336l1.655-1.363c-1.755-3.166-5.26-5.162-8.962-5.162-5.502 0-9.398 3.848-9.398 9.3 0 2.924 1.363 5.066 3.8 6.576l6.622 3.506c3.164 1.56 7.402 3.313 7.402 7.452 0 4.87-4.238 8.668-9.06 8.668-4.43 0-7.304-2.727-8.86-6.623l-2.047.924c1.703 4.724 5.697 7.89 10.81 7.89 5.942 0 11.493-4.58 11.493-10.666 0-3.31-1.41-5.55-4.187-7.304z"/><g><path opacity=".8" fill="#9EAF53" d="M55.167 15.767l3.246 9.335 8.31-6.534L45.14 9.925 23.558 1.28l1.297 9.032L37.913 25.46l8.097 9.394 2.437-1.916 8.132-6.394-3.75-10.777z"/></g><g fill="#383838"><path d="M138.425 63.787c.036 1.697-.215 3.18-1.41 4.483-1.287 1.393-3.216 2.18-5.11 2.18-3.73 0-6.91-3.144-6.91-6.86 0-3.856 3.162-6.964 7.02-6.964 2.447 0 4.43 1.214 5.84 3.143l-.695.552c-1.198-1.786-3.02-2.893-5.198-2.893-3.286 0-6.108 2.874-6.108 6.106 0 3.322 2.75 6.108 6.108 6.108 1.446 0 2.856-.59 3.966-1.482 1.16-.982 1.588-2.108 1.643-3.572h-4.82v-.803h5.676zm2.015 2.43c-.052 2.09 1.393 3.482 3.304 3.482 1.29 0 2.323-.77 2.913-1.877l.68.393c-.75 1.43-2.073 2.232-3.697 2.232-2.45 0-4.002-1.983-4.002-4.322 0-2.304 1.592-4.287 4.002-4.287 2.498 0 3.98 2 3.963 4.376h-7.162zm6.358-.75c-.196-1.52-1.446-2.876-3.142-2.876-1.68 0-3.072 1.324-3.216 2.877h6.358zm3.552-2.162h.036c.482-.91 1.375-1.464 2.448-1.464 2.123 0 2.713 1.324 2.713 3.45v4.982h-.802V65.29c0-1.482-.18-2.696-1.984-2.696-2.07 0-2.41 1.93-2.41 3.607v4.07h-.802v-8.25h.804v1.286zm7.946 2.912c-.053 2.09 1.392 3.482 3.303 3.482 1.287 0 2.32-.77 2.91-1.877l.68.393c-.75 1.43-2.072 2.232-3.696 2.232-2.448 0-4.002-1.983-4.002-4.322 0-2.304 1.592-4.287 4.002-4.287 2.498 0 3.98 2 3.963 4.376h-7.162zm6.358-.75c-.196-1.52-1.446-2.876-3.142-2.876-1.68 0-3.072 1.324-3.216 2.877h6.358zm3.553-2.377h.037c.32-.75.91-1.25 1.785-1.25.32 0 .59.073.873.197l-.43.715c-.194-.107-.354-.16-.57-.16-1.804 0-1.697 2.25-1.697 3.463v4.215h-.802v-8.25h.802v1.07zm11.413 7.18h-.806v-1.48h-.036c-.605 1.052-1.93 1.66-3.14 1.66-2.502 0-4.074-1.947-4.074-4.358s1.554-4.25 4.036-4.25c1.267 0 2.483.57 3.178 1.607h.036v-1.43h.805v8.25zm-7.25-4.18c0 1.894 1.25 3.608 3.25 3.608 2.106 0 3.25-1.714 3.25-3.697 0-1.91-1.306-3.41-3.306-3.41-1.893 0-3.195 1.716-3.195 3.5zm10.888 4.18h-.802v-7.5h-.91v-.75h.91v-2.947h.802v2.947h1.448v.75h-1.448v7.5zm10.664-4.125c0 2.447-1.91 4.304-4.34 4.304-2.375 0-4.288-1.948-4.288-4.288 0-2.375 1.894-4.322 4.29-4.322 2.427 0 4.338 1.858 4.338 4.305zm-7.823.018c0 1.875 1.48 3.536 3.43 3.536 2.015 0 3.59-1.538 3.59-3.538 0-2.036-1.556-3.572-3.59-3.572-1.968 0-3.43 1.66-3.43 3.573zm10.57-3.073h.034c.323-.75.913-1.25 1.787-1.25.323 0 .59.073.877.197l-.43.715c-.194-.107-.356-.16-.57-.16-1.804 0-1.697 2.25-1.697 3.463v4.215h-.805v-8.25h.804v1.07z"/></g></g><g transform="translate(0 300)"><g><path fill="#F6F6F6" d="M54.75-84.524l-3.873-26.967-9.835-11.41-17.67 50.64L5.698-21.62l52.69-10.017 52.69-10.016L91.68-64.16 61.13-40.14z"/></g><g><g opacity=".5"><path fill="#4A9EA3" d="M96.377-67.855l-4.7 3.695L76.06-82.276 50.88-111.49l-2.502-17.417L90-112.237l41.626 16.667"/></g></g><g><path fill="#F6F6F6" d="M54.75 48.476L50.878 21.51 41.042 10.1l-17.67 50.64L5.7 111.38l52.69-10.017 52.69-10.016-19.4-22.507-30.55 24.02z"/></g><g><g opacity=".5"><path fill="#9EAE52" d="M96.377 65.145l-4.7 3.695L76.06 50.724 50.88 21.51 48.375 4.09 90 20.762l41.626 16.668"/></g></g></g><g transform="translate(0 425)"><path fill="none" d="M109.092 39.992h14.33l-7.14-17.68z"/><g><path fill="#F6F6F6" d="M27.334 26.104L25.33 12.158l-5.087-5.902-9.14 26.19-9.14 26.193 27.252-5.18 27.252-5.18-10.035-11.644-15.8 12.426z"/></g><path fill="#383838" d="M66.543 48.883h-.097l-7.642-21.975-1.83 1.44 9.424 27.09 13.31-37.84h-2.333zm15.397 5.342h17.487V52.04H84.27V35.28h14.77v-2.186H84.27v-13.31h15.157v-2.186H81.94zm18.992 0h2.38l4.905-12.047h16.08l4.904 12.047h2.383l-15.3-37.842-15.35 37.842zm8.16-14.233l7.19-17.682 7.14 17.682h-14.33zm45.465 9.715L141.1 16.383l-7.867 37.842h2.236l6.262-30.313h.098l12.727 31.527 12.776-31.53h.1l6.263 30.314h2.234l-7.87-37.842zm40.996-12.922l-6.996-3.643c-2.963-1.408-6.605-3.012-6.605-6.85s2.965-6.996 6.898-6.996c3.45 0 5.78 1.7 7.434 4.322l1.648-1.36c-1.748-3.155-5.244-5.147-8.938-5.147-5.488 0-9.375 3.84-9.375 9.28 0 2.915 1.36 5.054 3.787 6.558l6.607 3.498c3.158 1.553 7.383 3.303 7.383 7.432 0 4.86-4.225 8.648-9.035 8.648-4.422 0-7.285-2.72-8.84-6.607l-2.04.923c1.698 4.71 5.683 7.87 10.784 7.87 5.924 0 11.463-4.567 11.463-10.64 0-3.302-1.41-5.537-4.178-7.287z"/><g><path opacity=".8" fill="#C45454" d="M55.566 17.598l3.238 9.31 8.29-6.517-21.53-8.62-21.527-8.62 1.294 9.01 13.027 15.11 8.076 9.37 2.43-1.91 8.112-6.38-3.74-10.75z"/></g><g fill="#383838"><path d="M130.554 57.01v12.957c0 1.646-.403 3.012-2.33 3.012-.96 0-1.785-.58-2.187-1.437l.63-.474c.298.63.93 1.12 1.628 1.12 1.313 0 1.42-1.226 1.42-2.225V57.01h.84zm9.876 13.203h-.787V68.76h-.036c-.595 1.032-1.892 1.627-3.08 1.627-2.452 0-3.993-1.907-3.993-4.27s1.523-4.168 3.956-4.168c1.243 0 2.435.56 3.117 1.573h.036v-1.4h.786v8.09zm-7.11-4.098c0 1.856 1.226 3.537 3.188 3.537 2.065 0 3.188-1.68 3.188-3.625 0-1.873-1.28-3.344-3.24-3.344-1.857 0-3.136 1.68-3.136 3.432zm12.276 2.68l2.872-6.672h.804l-3.693 8.527-3.715-8.527h.807l2.923 6.672zm12.222 1.418h-.788V68.76h-.036c-.595 1.032-1.89 1.627-3.08 1.627-2.452 0-3.992-1.907-3.992-4.27s1.522-4.168 3.957-4.168c1.24 0 2.43.56 3.113 1.573h.036v-1.4h.787v8.09zm-7.11-4.098c0 1.856 1.227 3.537 3.188 3.537 2.066 0 3.186-1.68 3.186-3.625 0-1.873-1.277-3.344-3.24-3.344-1.855 0-3.133 1.68-3.133 3.432zm15.987-6.935c-.595-.943-1.437-1.557-2.68-1.557-1.417 0-2.485 1.138-2.485 2.52s1.313 1.962 2.382 2.47l2.52 1.313c.998.63 1.508 1.437 1.508 2.627 0 2.188-1.996 3.833-4.134 3.833-1.838 0-3.272-1.137-3.886-2.836l.734-.333c.562 1.4 1.593 2.382 3.188 2.382 1.732 0 3.257-1.368 3.257-3.118 0-1.49-1.526-2.12-2.664-2.68l-2.38-1.26c-.877-.543-1.366-1.314-1.366-2.364 0-1.963 1.4-3.346 3.38-3.346 1.33 0 2.59.72 3.22 1.856l-.595.49zm9.545 4.817c-.772-.84-1.7-1.313-2.855-1.313-1.91 0-3.345 1.63-3.345 3.467 0 1.84 1.417 3.504 3.326 3.504 1.156 0 2.24-.56 2.976-1.453v1.068c-.822.72-1.855 1.12-2.94 1.12-2.4 0-4.15-1.873-4.15-4.236 0-2.346 1.786-4.2 4.167-4.2 1.05 0 2.013.314 2.82.997V64zm2.94-.823h.034c.315-.735.895-1.226 1.753-1.226.313 0 .576.07.855.192l-.42.7c-.192-.105-.35-.157-.56-.157-1.77 0-1.662 2.206-1.662 3.396v4.13h-.79v-8.09h.79v1.053zm5.497-3.747c0 .403-.313.718-.717.718s-.72-.314-.72-.718c0-.386.316-.718.72-.718s.717.33.717.716zm-.332 10.786h-.788v-8.09h.788v8.09zm3.8-6.637h.034c.593-1.033 1.89-1.628 3.08-1.628 2.47 0 3.993 1.926 3.993 4.29 0 2.363-1.524 4.148-3.958 4.148-1.243 0-2.45-.54-3.117-1.575h-.034v6.13h-.79V62.124h.79v1.453zm-.054 2.767c0 1.89 1.28 3.31 3.226 3.31 1.89 0 3.15-1.594 3.15-3.397 0-1.856-1.21-3.57-3.187-3.57-2.066-.002-3.188 1.712-3.188 3.657zm9.95 3.87h-.79V62.86h-.892v-.736h.893v-2.89h.79v2.89h1.42v.735h-1.42v7.352z"/></g></g><g transform="translate(210 425)"><path fill="none" d="M109.154 40.116h14.434l-7.192-17.813z"/><g><path fill="#F6F6F6" d="M26.79 26.125l-2.017-14.05-5.126-5.944-9.207 26.387L1.233 58.9l27.453-5.217 27.453-5.22-10.11-11.726L30.11 49.253z"/></g><path fill="#383838" d="M66.29 49.07h-.098l-7.698-22.133-1.843 1.45 9.493 27.29 13.407-38.12H77.2zm15.51 5.384h17.617v-2.202H84.15V35.368h14.876v-2.2H84.15v-13.41h15.267v-2.2H81.8zm19.133 0h2.397l4.94-12.137h16.2l4.94 12.137h2.397l-15.413-38.12-15.46 38.12zm8.22-14.338l7.243-17.813 7.192 17.813h-14.434zm45.8 9.787L141.4 16.333l-7.926 38.12h2.25l6.313-30.536h.098l12.82 31.76 12.87-31.76h.1l6.31 30.537h2.252l-7.928-38.12zm41.297-13.018l-7.046-3.67c-2.984-1.42-6.655-3.033-6.655-6.9 0-3.866 2.984-7.047 6.95-7.047 3.473 0 5.82 1.714 7.485 4.354l1.662-1.37c-1.76-3.18-5.283-5.187-9.004-5.187-5.528 0-9.444 3.866-9.444 9.347 0 2.936 1.37 5.09 3.816 6.606l6.655 3.52c3.18 1.567 7.44 3.33 7.44 7.49 0 4.894-4.258 8.71-9.103 8.71-4.454 0-7.34-2.74-8.905-6.656l-2.056.932c1.712 4.746 5.725 7.926 10.863 7.926 5.97 0 11.547-4.6 11.547-10.717 0-3.324-1.417-5.576-4.207-7.338z"/><g><path opacity=".8" fill="#4864A1" d="M55.23 17.557l3.264 9.38 8.35-6.566-21.687-8.683L23.47 3l1.303 9.076 13.12 15.22 8.138 9.44 2.45-1.925 8.17-6.423-3.77-10.83z"/></g><g fill="#383838"><path d="M122.674 61.508h-.03l-4.18 10.31-4.16-10.31h-.032l-2.05 9.913h-.73l2.573-12.372 4.4 10.897 4.416-10.897 2.575 12.374h-.73l-2.05-9.912zm4.14 6.307c-.047 1.86 1.24 3.098 2.94 3.098 1.143 0 2.063-.684 2.588-1.668l.604.35c-.667 1.27-1.843 1.984-3.288 1.984-2.176 0-3.56-1.764-3.56-3.846 0-2.05 1.415-3.813 3.56-3.813 2.224 0 3.542 1.78 3.526 3.894h-6.37zm5.655-.668c-.177-1.35-1.288-2.557-2.798-2.557-1.493 0-2.73 1.176-2.86 2.557h5.656zm3.237 4.273h-.715v-6.67h-.81v-.667h.81V61.46h.715v2.623h1.286v.666h-1.286v6.67zm3.238-13.103v6.908h.032c.43-.81 1.223-1.303 2.176-1.303 1.89 0 2.415 1.176 2.415 3.066v4.432h-.715v-4.432c0-1.318-.16-2.398-1.764-2.398-1.845 0-2.147 1.715-2.147 3.21v3.62h-.715V58.317h.715zm14.023 9.433c0 2.18-1.7 3.83-3.86 3.83-2.112 0-3.812-1.73-3.812-3.812 0-2.113 1.684-3.846 3.812-3.846 2.16 0 3.86 1.653 3.86 3.83zm-6.958.02c0 1.667 1.32 3.144 3.05 3.144 1.795 0 3.193-1.367 3.193-3.145 0-1.815-1.382-3.18-3.193-3.18-1.747 0-3.05 1.476-3.05 3.18zm14.42 2.333h-.03c-.54.938-1.717 1.477-2.797 1.477-2.224 0-3.62-1.73-3.62-3.875s1.38-3.78 3.59-3.78c1.126 0 2.206.51 2.826 1.43h.03V58.32h.714V71.42h-.715v-1.32zm.048-2.48c0-1.698-1.16-3.032-2.938-3.032-1.684 0-2.844 1.527-2.844 3.115 0 1.684 1.112 3.21 2.892 3.21 1.873 0 2.89-1.526 2.89-3.29zm10.067.127c0 2.18-1.7 3.83-3.86 3.83-2.112 0-3.813-1.73-3.813-3.812 0-2.113 1.685-3.846 3.813-3.846 2.16 0 3.86 1.653 3.86 3.83zm-6.958.02c0 1.667 1.318 3.144 3.05 3.144 1.795 0 3.193-1.367 3.193-3.145 0-1.815-1.382-3.18-3.193-3.18-1.747 0-3.05 1.476-3.05 3.18zm9.4 3.65h-.715V58.318h.715V71.42zm9.403-3.67c0 2.18-1.7 3.83-3.86 3.83-2.112 0-3.812-1.73-3.812-3.812 0-2.113 1.684-3.846 3.812-3.846 2.16 0 3.86 1.653 3.86 3.83zm-6.958.02c0 1.667 1.32 3.144 3.05 3.144 1.795 0 3.193-1.367 3.193-3.145 0-1.815-1.382-3.18-3.193-3.18-1.747 0-3.05 1.476-3.05 3.18zm15.245 3.3c0 1.13-.03 2.146-.73 3.114-.683.938-1.764 1.414-2.923 1.414-1.922 0-3.51-1.127-3.622-3.145h.715c.08 1.525 1.366 2.477 2.844 2.477.923 0 1.813-.316 2.353-1.096.572-.842.65-1.795.65-2.78v-.905h-.03c-.65.873-1.748 1.43-2.86 1.43-2.128 0-3.558-1.797-3.558-3.846 0-2.11 1.51-3.813 3.653-3.813 1.19 0 2.08.51 2.765 1.43h.03v-1.27h.716v6.99zm-6.45-3.366c0 1.684 1.113 3.21 2.893 3.21 1.874 0 2.89-1.526 2.89-3.29 0-1.7-1.158-3.033-2.937-3.033-1.685 0-2.845 1.527-2.845 3.115zm7.56-3.62h.746l3.13 6.64 2.81-6.64h.73L194.28 75.71h-.73l1.763-4.162-3.527-7.465z"/></g></g><g transform="translate(0 510)"><path fill="none" d="M109.427 39.293h14.1l-7.026-17.4zm.08 1.88h14.24l-7.097-17.57z"/><g><path fill="#F6F6F6" d="M28.26 27.373l-1.99-13.86-5.057-5.864-9.082 26.026L3.05 59.7l27.08-5.145 27.08-5.147-9.97-11.57-15.7 12.346z"/></g><path fill="#383838" d="M67.224 50.008h-.098l-7.593-21.835-1.818 1.43 9.363 26.92L80.304 18.92h-2.316zm15.3 5.31H99.9v-2.17H84.84V36.49h14.675v-2.17H84.84V21.092H99.9V18.92H82.525zm18.872 0h2.365l4.876-11.974h15.98l4.873 11.973h2.364L116.65 17.713l-15.254 37.604zm8.11-14.145l7.144-17.57 7.095 17.57h-14.24zm45.178 9.654l-13.37-33.114-7.82 37.604h2.22l6.227-30.12h.1l12.645 31.326 12.695-31.327h.097l6.226 30.12h2.22l-7.82-37.603zm40.738-12.84l-6.95-3.62c-2.946-1.4-6.565-2.993-6.565-6.807s2.946-6.95 6.855-6.95c3.426 0 5.745 1.69 7.386 4.294l1.64-1.35c-1.737-3.138-5.212-5.116-8.88-5.116-5.454 0-9.318 3.813-9.318 9.22 0 2.895 1.353 5.02 3.765 6.515l6.565 3.477c3.14 1.544 7.338 3.282 7.338 7.385 0 4.828-4.2 8.592-8.98 8.592-4.393 0-7.24-2.702-8.783-6.564l-2.028.918c1.688 4.684 5.648 7.82 10.716 7.82 5.888 0 11.392-4.536 11.392-10.57 0-3.285-1.403-5.505-4.153-7.243z"/><g><path opacity=".8" fill="#BC812A" d="M56.315 18.92l3.218 9.253 8.238-6.477-21.393-8.566-21.393-8.568 1.287 8.95L39.21 28.53l8.03 9.312 2.414-1.9 8.06-6.337-3.717-10.684z"/></g><g fill="#383838"><path d="M173.05 60.634c-.625-.993-1.51-1.637-2.815-1.637-1.49 0-2.61 1.195-2.61 2.65 0 1.452 1.38 2.06 2.5 2.593l2.65 1.38c1.05.662 1.582 1.51 1.582 2.76 0 2.3-2.097 4.03-4.342 4.03-1.932 0-3.44-1.196-4.084-2.98l.773-.352c.59 1.473 1.675 2.503 3.35 2.503 1.82 0 3.422-1.434 3.422-3.272 0-1.564-1.6-2.228-2.796-2.815l-2.504-1.325c-.92-.57-1.435-1.38-1.435-2.482 0-2.062 1.47-3.515 3.55-3.515 1.4 0 2.725.756 3.388 1.95l-.627.515zm10.986 11.592h-.827V70.7h-.04c-.625 1.085-1.987 1.71-3.237 1.71-2.576 0-4.195-2.005-4.195-4.49s1.6-4.378 4.157-4.378c1.307 0 2.558.588 3.274 1.655h.04v-1.472h.825v8.5zm-7.47-4.306c0 1.95 1.287 3.717 3.35 3.717 2.17 0 3.348-1.767 3.348-3.81 0-1.968-1.344-3.514-3.404-3.514-1.95 0-3.294 1.766-3.294 3.607zm13.872-2.65c-.275-.588-.827-.956-1.49-.956-.717 0-1.453.59-1.453 1.324 0 2.043 4.14 1.05 4.14 4.122 0 1.563-1.214 2.65-2.74 2.65-1.418 0-2.576-.865-2.927-2.245l.81-.258c.313 1.012.994 1.73 2.116 1.73 1.067 0 1.913-.848 1.913-1.914 0-1.05-.81-1.38-1.655-1.675-1.16-.424-2.484-.92-2.484-2.355 0-1.287 1.085-2.152 2.318-2.152.865 0 1.804.57 2.172 1.363l-.72.37zm6.902 0c-.277-.588-.828-.956-1.49-.956-.718 0-1.454.59-1.454 1.324 0 2.043 4.14 1.05 4.14 4.122 0 1.563-1.214 2.65-2.742 2.65-1.417 0-2.575-.865-2.926-2.245l.81-.258c.313 1.012.994 1.73 2.116 1.73 1.067 0 1.914-.848 1.914-1.914 0-1.05-.81-1.38-1.656-1.675-1.16-.424-2.483-.92-2.483-2.355 0-1.287 1.083-2.152 2.316-2.152.864 0 1.803.57 2.17 1.363l-.718.37z"/></g></g><g transform="translate(210 510)"><g><path fill="none" d="M112.843 39.155h14.84l-7.394-18.31z"/><g><path fill="#F6F6F6" d="M28.173 24.773L26.098 10.33l-5.27-6.112-9.464 27.124-9.466 27.124 28.224-5.364 28.222-5.365L47.952 35.68 31.588 48.548z"/></g><path fill="#383838" d="M68.78 48.36h-.102l-7.914-22.753-1.895 1.49 9.757 28.055L82.41 15.964h-2.413zm15.944 5.535h18.11V51.63H87.14V34.276h15.292V32.01H87.14V18.23h15.694v-2.264h-18.11zm19.668 0h2.465l5.08-12.476h16.652l5.08 12.474h2.464l-15.847-39.188-15.896 39.188zm8.45-14.74l7.446-18.31 7.395 18.31h-14.84zm47.086 10.06l-13.935-34.51-8.15 39.19h2.315l6.49-31.392h.1l13.18 32.65 13.23-32.65h.1l6.49 31.392h2.314l-8.15-39.19zm42.455-13.38l-7.244-3.773c-3.07-1.46-6.844-3.12-6.844-7.093s3.07-7.246 7.144-7.246c3.573 0 5.987 1.76 7.698 4.477l1.71-1.407c-1.81-3.27-5.433-5.333-9.256-5.333-5.685 0-9.71 3.975-9.71 9.61 0 3.018 1.41 5.23 3.925 6.79l6.842 3.622c3.27 1.61 7.644 3.42 7.644 7.697 0 5.03-4.377 8.953-9.357 8.953-4.578 0-7.546-2.817-9.155-6.842l-2.113.957c1.76 4.88 5.885 8.15 11.167 8.15 6.138 0 11.872-4.73 11.872-11.018 0-3.42-1.46-5.735-4.328-7.546z"/><g><path opacity=".5" fill="#4A9EA3" d="M57.41 15.964l3.354 9.643 8.585-6.75L47.05 9.93 24.757 1l1.34 9.33 13.49 15.648 8.365 9.703 2.517-1.977 8.4-6.604-3.876-11.135z"/></g></g></g><g><path fill="#F6F6F6" d="M149.25 161.976l-3.873-26.967-9.835-11.41-17.67 50.64-17.673 50.64 52.69-10.018 52.69-10.016-19.403-22.507-30.55 24.02z"/></g><g><g opacity=".5"><path fill="#4A9EA3" d="M190.877 178.645l-4.7 3.695-15.616-18.116-25.182-29.214-2.502-17.417 41.625 16.67 41.627 16.668"/></g></g></svg>