<svg baseProfile="tiny" xmlns="http://www.w3.org/2000/svg" preserveAspectRatio="xMinYMin meet" viewBox="0 0 1425 300" width="1425" height="300"><path fill-rule="evenodd" clip-rule="evenodd" fill="#373737" d="M16.29 0C7.293 0 0 7.294 0 16.29c0 7.2 4.667 13.304 11.14 15.46.815.148 1.113-.354 1.113-.785 0-.387-.014-1.412-.022-2.77-4.53.983-5.485-2.185-5.485-2.185-.74-1.88-1.81-2.383-1.81-2.383-1.478-1.01.113-.99.113-.99 1.635.115 2.495 1.68 2.495 1.68 1.453 2.488 3.813 1.77 4.74 1.354.15-1.053.57-1.77 1.035-2.18-3.617-.41-7.42-1.807-7.42-8.05 0-1.777.635-3.23 1.677-4.37-.167-.412-.727-2.07.16-4.31 0 0 1.368-.44 4.48 1.67 1.298-.36 2.692-.544 4.077-.55 1.385.006 2.777.19 4.08.55 3.11-2.11 4.475-1.67 4.475-1.67.89 2.24.33 3.897.162 4.31 1.042 1.14 1.673 2.593 1.673 4.37 0 6.26-3.808 7.636-7.437 8.04.585.503 1.105 1.497 1.105 3.017 0 2.178-.02 3.934-.02 4.47 0 .435.294.94 1.12.782 6.47-2.16 11.13-8.26 11.13-15.456C32.58 7.294 25.29 0 16.29 0z"/><g transform="translate(40)"><g><path fill="none" d="M112.843-35.845h14.84l-7.394-18.31z"/><g><path fill="#F6F6F6" d="M28.173-50.227L26.098-64.67l-5.27-6.112-9.464 27.124-9.466 27.124 28.224-5.364 28.222-5.365L47.952-39.32 31.588-26.452z"/></g><path fill="#383838" d="M68.78-26.64h-.102l-7.914-22.753-1.895 1.49 9.757 28.055L82.41-59.036h-2.413zm15.944 5.535h18.11v-2.264H87.14v-17.354h15.292v-2.264H87.14V-56.77h15.694v-2.264h-18.11zm19.668 0h2.465l5.08-12.476h16.652l5.08 12.474h2.464l-15.847-39.188-15.896 39.188zm8.45-14.74l7.446-18.31 7.395 18.31h-14.84zm47.086 10.06l-13.935-34.51-8.15 39.19h2.315l6.49-31.392h.1l13.18 32.65 13.23-32.65h.1l6.49 31.392h2.314l-8.15-39.19zm42.455-13.38l-7.244-3.773c-3.07-1.46-6.844-3.12-6.844-7.093s3.07-7.246 7.144-7.246c3.573 0 5.987 1.76 7.698 4.477l1.71-1.407c-1.81-3.27-5.433-5.333-9.256-5.333-5.685 0-9.71 3.975-9.71 9.61 0 3.018 1.41 5.23 3.925 6.79l6.842 3.622c3.27 1.61 7.644 3.42 7.644 7.697 0 5.03-4.377 8.953-9.357 8.953-4.578 0-7.546-2.817-9.155-6.842l-2.113.957c1.76 4.88 5.885 8.15 11.167 8.15 6.138 0 11.872-4.73 11.872-11.018 0-3.42-1.46-5.735-4.328-7.546z"/><g><path opacity=".5" fill="#4A9EA3" d="M57.41-59.036l3.354 9.643 8.585-6.75L47.05-65.07 24.757-74l1.34 9.33 13.49 15.648 8.365 9.703 2.517-1.977 8.4-6.604-3.876-11.135z"/></g></g><path fill="none" d="M108.828 38.216h14.365l-7.158-17.725z"/><g><path fill="#F6F6F6" d="M26.864 24.294l-2.01-13.982-5.1-5.916-9.16 26.257L1.43 56.91l27.32-5.193 27.32-5.193-10.06-11.67-15.84 12.454z"/></g><path fill="#383838" d="M66.172 47.128h-.098l-7.66-22.026-1.835 1.442 9.445 27.158 13.342-37.935H77.03zm15.436 5.357h17.53v-2.192H83.945v-16.8H98.75V31.3H83.944V17.96h15.193v-2.19h-17.53zm19.04 0h2.384l4.917-12.077h16.12l4.916 12.077h2.386l-15.34-37.936-15.386 37.934zm8.18-14.27l7.207-17.725 7.158 17.726h-14.365zm45.578 9.74l-13.49-33.406-7.888 37.934h2.24l6.28-30.388h.1L154.406 53.7l12.807-31.604h.1l6.28 30.388h2.24l-7.89-37.936zm41.097-12.953l-7.013-3.652c-2.97-1.412-6.623-3.02-6.623-6.866 0-3.847 2.973-7.013 6.917-7.013 3.458 0 5.795 1.707 7.45 4.336l1.655-1.363c-1.755-3.166-5.26-5.162-8.96-5.162-5.504 0-9.4 3.848-9.4 9.3 0 2.924 1.362 5.066 3.8 6.576l6.62 3.506c3.166 1.56 7.403 3.313 7.403 7.452 0 4.87-4.237 8.668-9.06 8.668-4.43 0-7.303-2.727-8.86-6.623l-2.046.924c1.703 4.724 5.696 7.89 10.81 7.89 5.94 0 11.493-4.58 11.493-10.666.002-3.31-1.41-5.55-4.187-7.304z"/><g><path opacity=".8" fill="#9EAF53" d="M55.167 15.767l3.246 9.335 8.31-6.534L45.14 9.925 23.558 1.28l1.297 9.032L37.913 25.46l8.097 9.394 2.437-1.916 8.132-6.394-3.75-10.777z"/></g><g fill="#383838"><path d="M140.445 63.55c.036 1.64-.206 3.074-1.362 4.334-1.245 1.346-3.11 2.106-4.94 2.106-3.608 0-6.682-3.04-6.682-6.63 0-3.73 3.06-6.735 6.79-6.735 2.364 0 4.28 1.174 5.645 3.04l-.674.535c-1.156-1.727-2.917-2.797-5.024-2.797-3.178 0-5.905 2.78-5.905 5.905 0 3.212 2.66 5.906 5.906 5.906 1.398 0 2.763-.57 3.834-1.433 1.12-.95 1.535-2.036 1.588-3.452h-4.662v-.777h5.49zm1.95 2.35c-.052 2.02 1.346 3.366 3.193 3.366 1.245 0 2.246-.743 2.815-1.813l.656.38c-.727 1.38-2.006 2.158-3.576 2.158-2.366 0-3.868-1.915-3.868-4.176 0-2.228 1.538-4.145 3.868-4.145 2.417 0 3.85 1.934 3.833 4.23h-6.923zm6.147-.727c-.19-1.468-1.398-2.78-3.038-2.78-1.623 0-2.97 1.278-3.108 2.78h6.146zm3.434-2.09h.034c.466-.88 1.33-1.416 2.366-1.416 2.054 0 2.624 1.278 2.624 3.333v4.818h-.776V65c0-1.433-.174-2.607-1.917-2.607-2.003 0-2.33 1.865-2.33 3.488v3.94h-.778v-7.98h.775v1.244zm7.684 2.817c-.053 2.02 1.345 3.366 3.192 3.366 1.245 0 2.246-.743 2.815-1.813l.656.38c-.725 1.38-2.004 2.158-3.574 2.158-2.368 0-3.87-1.915-3.87-4.176 0-2.228 1.54-4.145 3.87-4.145 2.415 0 3.85 1.934 3.83 4.23h-6.922zm6.145-.727c-.19-1.468-1.398-2.78-3.038-2.78-1.623 0-2.97 1.278-3.108 2.78h6.144zm3.435-2.297h.035c.312-.726.88-1.21 1.727-1.21.31 0 .57.07.847.19l-.416.692c-.19-.104-.345-.155-.553-.155-1.743 0-1.64 2.175-1.64 3.35v4.076h-.776v-7.98h.776v1.035zm11.034 6.942h-.777v-1.433h-.035c-.587 1.018-1.865 1.605-3.038 1.605-2.417 0-3.938-1.882-3.938-4.213 0-2.33 1.502-4.11 3.902-4.11 1.226 0 2.4.553 3.073 1.555h.037v-1.38h.777v7.976zm-7.01-4.04c0 1.83 1.208 3.487 3.142 3.487 2.038 0 3.144-1.658 3.144-3.574 0-1.846-1.262-3.296-3.195-3.296-1.832 0-3.092 1.658-3.092 3.384zm10.53 4.04h-.777v-7.252h-.88v-.725h.88v-2.847h.776v2.85h1.4v.724h-1.4v7.252zm10.31-3.988c0 2.365-1.85 4.16-4.196 4.16-2.297 0-4.146-1.88-4.146-4.143 0-2.297 1.83-4.18 4.146-4.18 2.347 0 4.195 1.796 4.195 4.162zm-7.564.017c0 1.813 1.433 3.42 3.315 3.42 1.95 0 3.47-1.486 3.47-3.42 0-1.97-1.5-3.454-3.47-3.454-1.9 0-3.315 1.606-3.315 3.454zm10.22-2.97h.033c.313-.727.883-1.21 1.728-1.21.313 0 .57.07.848.19l-.414.69c-.19-.103-.345-.154-.552-.154-1.744 0-1.64 2.175-1.64 3.35v4.076h-.777v-7.98h.777v1.035z"/></g></g><g transform="translate(250)"><g><path fill="#F6F6F6" d="M54.75-84.524l-3.873-26.967-9.835-11.41-17.67 50.64L5.698-21.62l52.69-10.017 52.69-10.016L91.68-64.16 61.13-40.14z"/></g><g><g opacity=".5"><path fill="#4A9EA3" d="M96.377-67.855l-4.7 3.695L76.06-82.276 50.88-111.49l-2.502-17.417L90-112.237l41.626 16.667"/></g></g><g><path fill="#F6F6F6" d="M54.75 48.476L50.878 21.51 41.042 10.1l-17.67 50.64L5.7 111.38l52.69-10.017 52.69-10.016-19.4-22.507-30.55 24.02z"/></g><g><g opacity=".5"><path fill="#9EAE52" d="M96.377 65.145l-4.7 3.695L76.06 50.724 50.88 21.51 48.375 4.09 90 20.762l41.626 16.668"/></g></g></g><g transform="translate(395)"><path fill="none" d="M109.154 40.116h14.434l-7.192-17.813z"/><g><path fill="#F6F6F6" d="M26.79 26.125l-2.017-14.05-5.126-5.944L10.44 32.52 1.233 58.9l27.453-5.217 27.453-5.22-10.11-11.727L30.11 49.252z"/></g><path fill="#383838" d="M66.29 49.072h-.098l-7.698-22.135-1.843 1.45 9.493 27.29 13.407-38.12H77.2zm15.51 5.382h17.617v-2.202H84.15V35.368h14.876v-2.202H84.15V19.76h15.267v-2.203H81.8zm19.133 0h2.397l4.94-12.136h16.2l4.94 12.136h2.397l-15.413-38.12-15.46 38.12zm8.22-14.338l7.243-17.813 7.192 17.813h-14.434zm45.8 9.786L141.4 16.332l-7.926 38.122h2.25l6.313-30.537h.098l12.82 31.76 12.87-31.76h.1l6.31 30.537h2.252l-7.928-38.12zm41.297-13.016l-7.046-3.67c-2.984-1.42-6.655-3.034-6.655-6.9s2.984-7.047 6.95-7.047c3.473 0 5.82 1.712 7.485 4.352l1.662-1.37c-1.76-3.18-5.283-5.187-9.004-5.187-5.528 0-9.444 3.866-9.444 9.347 0 2.936 1.37 5.09 3.816 6.606l6.655 3.52c3.18 1.566 7.44 3.33 7.44 7.488 0 4.894-4.258 8.71-9.103 8.71-4.454 0-7.34-2.74-8.905-6.654l-2.056.93c1.712 4.747 5.725 7.927 10.863 7.927 5.97 0 11.547-4.6 11.547-10.717 0-3.325-1.417-5.577-4.207-7.338z"/><g><path opacity=".8" fill="#4864A1" d="M55.23 17.557l3.264 9.38 8.35-6.566-21.687-8.683L23.47 3l1.303 9.076 13.12 15.22 8.138 9.44 2.45-1.924 8.17-6.426-3.77-10.83z"/></g><g><path d="M122.674 61.51h-.03l-4.18 10.31-4.16-10.31h-.032l-2.05 9.912h-.73l2.573-12.374 4.4 10.897 4.416-10.897 2.575 12.374h-.73l-2.05-9.912zm4.14 6.305c-.047 1.86 1.24 3.098 2.94 3.098 1.143 0 2.063-.683 2.588-1.668l.604.35c-.667 1.27-1.843 1.985-3.288 1.985-2.176 0-3.56-1.763-3.56-3.844 0-2.05 1.415-3.813 3.56-3.813 2.224 0 3.542 1.78 3.526 3.892h-6.37zm5.655-.667c-.177-1.35-1.288-2.557-2.798-2.557-1.493 0-2.73 1.177-2.86 2.56h5.656zm3.237 4.272h-.715v-6.67h-.81v-.667h.81v-2.62h.715v2.62h1.286v.667h-1.286v6.67zm3.238-13.103v6.91h.032c.43-.81 1.223-1.303 2.176-1.303 1.89 0 2.415 1.176 2.415 3.066v4.432h-.715V66.99c0-1.318-.16-2.398-1.764-2.398-1.845 0-2.147 1.715-2.147 3.208v3.622h-.715V58.317h.715zm14.023 9.435c0 2.176-1.7 3.828-3.86 3.828-2.112 0-3.812-1.73-3.812-3.812 0-2.113 1.684-3.844 3.812-3.844 2.16 0 3.86 1.652 3.86 3.828zm-6.958.016c0 1.668 1.32 3.145 3.05 3.145 1.795 0 3.193-1.366 3.193-3.145 0-1.81-1.382-3.177-3.193-3.177-1.747 0-3.05 1.48-3.05 3.18zm14.42 2.335h-.03c-.54.937-1.717 1.477-2.797 1.477-2.224 0-3.62-1.73-3.62-3.875s1.38-3.78 3.59-3.78c1.126 0 2.206.507 2.826 1.43h.03v-7.038h.714V71.42h-.715v-1.317zm.048-2.478c0-1.7-1.16-3.034-2.938-3.034-1.684 0-2.844 1.527-2.844 3.115 0 1.684 1.112 3.208 2.892 3.208 1.873 0 2.89-1.524 2.89-3.287zm10.067.127c0 2.176-1.7 3.828-3.86 3.828-2.112 0-3.813-1.73-3.813-3.812 0-2.113 1.685-3.844 3.813-3.844 2.16 0 3.86 1.652 3.86 3.828zm-6.958.016c0 1.668 1.318 3.145 3.05 3.145 1.795 0 3.193-1.366 3.193-3.145 0-1.81-1.382-3.177-3.193-3.177-1.747 0-3.05 1.48-3.05 3.18zm9.4 3.652h-.715V58.318h.715V71.42zm9.403-3.668c0 2.176-1.7 3.828-3.86 3.828-2.112 0-3.812-1.73-3.812-3.812 0-2.113 1.684-3.844 3.812-3.844 2.16 0 3.86 1.652 3.86 3.828zm-6.958.016c0 1.668 1.32 3.145 3.05 3.145 1.795 0 3.193-1.366 3.193-3.145 0-1.81-1.382-3.177-3.193-3.177-1.747 0-3.05 1.48-3.05 3.18zm15.245 3.304c0 1.128-.03 2.145-.73 3.113-.683.938-1.764 1.414-2.923 1.414-1.922 0-3.51-1.13-3.622-3.147h.715c.08 1.525 1.366 2.478 2.844 2.478.923 0 1.813-.316 2.353-1.095.572-.842.65-1.795.65-2.78v-.906h-.03c-.65.873-1.748 1.43-2.86 1.43-2.128 0-3.558-1.796-3.558-3.845 0-2.113 1.51-3.813 3.653-3.813 1.19 0 2.08.508 2.765 1.43h.03v-1.27h.716v6.99zm-6.45-3.367c0 1.684 1.113 3.208 2.893 3.208 1.874 0 2.89-1.525 2.89-3.288 0-1.7-1.158-3.034-2.937-3.034-1.685 0-2.845 1.527-2.845 3.116zm7.56-3.622h.746l3.13 6.64 2.81-6.64h.73L194.28 75.71h-.73l1.763-4.162-3.527-7.465z"/></g></g><g transform="translate(605)"><g><path fill="none" d="M112.843 39.155h14.84l-7.394-18.31z"/><g><path fill="#F6F6F6" d="M28.173 24.773L26.098 10.33l-5.27-6.112-9.464 27.124-9.466 27.124 28.224-5.364 28.222-5.365L47.952 35.68 31.588 48.548z"/></g><path fill="#383838" d="M68.78 48.36h-.102l-7.914-22.753-1.895 1.49 9.757 28.055L82.41 15.964h-2.413zm15.944 5.535h18.11V51.63H87.14V34.276h15.292V32.01H87.14V18.23h15.694v-2.264h-18.11zm19.668 0h2.465l5.08-12.476h16.652l5.08 12.474h2.464l-15.847-39.188-15.896 39.188zm8.45-14.74l7.446-18.31 7.395 18.31h-14.84zm47.086 10.06l-13.935-34.51-8.15 39.19h2.315l6.49-31.392h.1l13.18 32.65 13.23-32.65h.1l6.49 31.392h2.314l-8.15-39.19zm42.455-13.38l-7.244-3.773c-3.07-1.46-6.844-3.12-6.844-7.093s3.07-7.246 7.144-7.246c3.573 0 5.987 1.76 7.698 4.477l1.71-1.407c-1.81-3.27-5.433-5.333-9.256-5.333-5.685 0-9.71 3.975-9.71 9.61 0 3.018 1.41 5.23 3.925 6.79l6.842 3.622c3.27 1.61 7.644 3.42 7.644 7.697 0 5.03-4.377 8.953-9.357 8.953-4.578 0-7.546-2.817-9.155-6.842l-2.113.957c1.76 4.88 5.885 8.15 11.167 8.15 6.138 0 11.872-4.73 11.872-11.018 0-3.42-1.46-5.735-4.328-7.546z"/><g><path opacity=".5" fill="#4A9EA3" d="M57.41 15.964l3.354 9.643 8.585-6.75L47.05 9.93 24.757 1l1.34 9.33 13.49 15.648 8.365 9.703 2.517-1.977 8.4-6.604-3.876-11.135z"/></g></g></g><g transform="translate(820)"><g><path fill="#F6F6F6" d="M149.25 161.976l-3.873-26.967-9.835-11.41-17.67 50.64-17.673 50.64 52.69-10.018 52.69-10.016-19.403-22.507-30.55 24.02z"/></g><g><g opacity=".5"><path fill="#4A9EA3" d="M190.877 178.645l-4.7 3.695-15.616-18.116-25.182-29.214-2.502-17.417 41.625 16.67 41.627 16.668"/></g></g></g></svg>