<svg baseProfile="tiny" xmlns="http://www.w3.org/2000/svg" preserveAspectRatio="xMinYMin meet" viewBox="0 0 255 70" width="255" height="70"><path fill-rule="evenodd" clip-rule="evenodd" fill="#373737" d="M16.29 0C7.293 0 0 7.294 0 16.29c0 7.2 4.667 13.304 11.14 15.46.815.148 1.113-.354 1.113-.785 0-.387-.014-1.412-.022-2.77-4.53.983-5.485-2.185-5.485-2.185-.74-1.88-1.81-2.383-1.81-2.383-1.478-1.01.113-.99.113-.99 1.635.115 2.495 1.68 2.495 1.68 1.453 2.488 3.813 1.77 4.74 1.354.15-1.053.57-1.77 1.035-2.18-3.617-.41-7.42-1.807-7.42-8.05 0-1.777.635-3.23 1.677-4.37-.167-.412-.727-2.07.16-4.31 0 0 1.368-.44 4.48 1.67 1.298-.36 2.692-.544 4.077-.55 1.385.006 2.777.19 4.08.55 3.11-2.11 4.475-1.67 4.475-1.67.89 2.24.33 3.897.162 4.31 1.042 1.14 1.673 2.593 1.673 4.37 0 6.26-3.808 7.636-7.437 8.04.585.503 1.105 1.497 1.105 3.017 0 2.178-.02 3.934-.02 4.47 0 .435.294.94 1.12.782 6.47-2.16 11.13-8.26 11.13-15.456C32.58 7.294 25.29 0 16.29 0z"/><g transform="translate(40)"><g><path fill="none" d="M112.843 39.155h14.84l-7.394-18.31z"/><g><path fill="#F6F6F6" d="M28.173 24.773L26.098 10.33l-5.27-6.112-9.464 27.124-9.466 27.124 28.224-5.364 28.222-5.365L47.952 35.68 31.588 48.548z"/></g><path fill="#383838" d="M68.78 48.36h-.102l-7.914-22.753-1.895 1.49 9.757 28.055L82.41 15.964h-2.413zm15.944 5.535h18.11V51.63H87.14V34.276h15.292V32.01H87.14V18.23h15.694v-2.264h-18.11zm19.668 0h2.465l5.08-12.476h16.652l5.08 12.474h2.464l-15.847-39.188-15.896 39.188zm8.45-14.74l7.446-18.31 7.395 18.31h-14.84zm47.086 10.06l-13.935-34.51-8.15 39.19h2.315l6.49-31.392h.1l13.18 32.65 13.23-32.65h.1l6.49 31.392h2.314l-8.15-39.19zm42.455-13.38l-7.244-3.773c-3.07-1.46-6.844-3.12-6.844-7.093s3.07-7.246 7.144-7.246c3.573 0 5.987 1.76 7.698 4.477l1.71-1.407c-1.81-3.27-5.433-5.333-9.256-5.333-5.685 0-9.71 3.975-9.71 9.61 0 3.018 1.41 5.23 3.925 6.79l6.842 3.622c3.27 1.61 7.644 3.42 7.644 7.697 0 5.03-4.377 8.953-9.357 8.953-4.578 0-7.546-2.817-9.155-6.842l-2.113.957c1.76 4.88 5.885 8.15 11.167 8.15 6.138 0 11.872-4.73 11.872-11.018 0-3.42-1.46-5.735-4.328-7.546z"/><g><path opacity=".5" fill="#4A9EA3" d="M57.41 15.964l3.354 9.643 8.585-6.75L47.05 9.93 24.757 1l1.34 9.33 13.49 15.648 8.365 9.703 2.517-1.977 8.4-6.604-3.876-11.135z"/></g></g></g></svg>